<svg width="42" height="42" viewBox="0 0 42 42" fill="none" xmlns="http://www.w3.org/2000/svg">
<path d="M5.103 34.6094V38.64H12.075V34.6094C12.075 33.9986 11.8301 33.4128 11.3944 32.9807C10.9584 32.5488 10.3673 32.3062 9.751 32.3062H7.427C6.81073 32.3062 6.21958 32.5488 5.7836 32.9807C5.34785 33.4128 5.103 33.9986 5.103 34.6094Z" fill="#333333"/>
<path d="M10.6228 30.2912C10.6228 31.4043 9.71244 32.3065 8.58935 32.3065C7.46626 32.3065 6.55585 31.4043 6.55585 30.2912C6.55585 29.1782 7.46626 28.2759 8.58935 28.2759C9.71244 28.2759 10.6228 29.1782 10.6228 30.2912Z" fill="#333333"/>
<path d="M17.304 34.6094V38.64H24.276V34.6094C24.276 33.9986 24.0311 33.4128 23.5954 32.9807C23.1594 32.5488 22.5682 32.3062 21.952 32.3062H19.628C19.0117 32.3062 18.4206 32.5488 17.9846 32.9807C17.5488 33.4128 17.304 33.9986 17.304 34.6094Z" fill="#333333"/>
<path d="M22.8232 30.2912C22.8232 31.4043 21.9128 32.3065 20.7897 32.3065C19.6666 32.3065 18.7562 31.4043 18.7562 30.2912C18.7562 29.1782 19.6666 28.2759 20.7897 28.2759C21.9128 28.2759 22.8232 29.1782 22.8232 30.2912Z" fill="#333333"/>
<path d="M29.505 34.6094V38.64H36.477V34.6094C36.477 33.9986 36.2322 33.4128 35.7964 32.9807C35.3604 32.5488 34.7693 32.3062 34.153 32.3062H31.829C31.2127 32.3062 30.6216 32.5488 30.1856 32.9807C29.7499 33.4128 29.505 33.9986 29.505 34.6094Z" fill="#333333"/>
<path d="M35.0248 30.2912C35.0248 31.4043 34.1144 32.3065 32.9913 32.3065C31.8682 32.3065 30.9578 31.4043 30.9578 30.2912C30.9578 29.1782 31.8682 28.2759 32.9913 28.2759C34.1144 28.2759 35.0248 29.1782 35.0248 30.2912Z" fill="#333333"/>
<path d="M26.019 9.84962V5.24317C26.019 4.6324 25.7742 4.04654 25.3384 3.61446C24.9024 3.1826 24.3113 2.93994 23.695 2.93994H17.885C17.2687 2.93994 16.6776 3.1826 16.2416 3.61446C15.8059 4.04657 15.561 4.63242 15.561 5.24317V9.84962C15.561 10.4604 15.8059 11.0462 16.2416 11.4783C16.6776 11.9102 17.2687 12.1528 17.885 12.1528H23.695C24.3113 12.1528 24.9024 11.9102 25.3384 11.4783C25.7742 11.0462 26.019 10.4604 26.019 9.84962ZM22.2264 9.84962L20.79 9.06277L19.3536 9.84962L19.628 8.18287L18.466 7.00244L20.0718 6.75926L20.79 5.24315L21.5082 6.75953L23.114 7.0027L21.952 8.18314L22.2264 9.84962Z" fill="#333333"/>
<path d="M5.68399 19.6384H11.494C12.1103 19.6384 12.7014 19.3958 13.1374 18.9639C13.5731 18.5318 13.818 17.946 13.818 17.3352V12.7288C13.818 12.118 13.5731 11.5321 13.1374 11.1001C12.7014 10.6682 12.1102 10.4255 11.494 10.4255H5.68399C5.06771 10.4255 4.47657 10.6682 4.04059 11.1001C3.60484 11.5322 3.35999 12.118 3.35999 12.7288V17.3352C3.35999 17.946 3.60484 18.5318 4.04059 18.9639C4.47659 19.3958 5.06773 19.6384 5.68399 19.6384ZM8.58899 13.5624C9.2465 12.318 11.494 12.4661 11.494 14.0094C11.494 15.4872 9.20684 16.9651 8.58899 17.3352C7.97115 16.9651 5.68399 15.4872 5.68399 14.0094C5.68399 12.4663 7.93149 12.3183 8.58899 13.5624Z" fill="#333333"/>
<path d="M38.22 17.3352V12.7288C38.22 12.118 37.9751 11.5321 37.5394 11.1001C37.1034 10.6682 36.5123 10.4255 35.896 10.4255H30.086C29.4697 10.4255 28.8786 10.6682 28.4426 11.1001C28.0068 11.5322 27.762 12.118 27.762 12.7288V17.3352C27.762 17.946 28.0068 18.5318 28.4426 18.9639C28.8786 19.3958 29.4697 19.6384 30.086 19.6384H35.896C36.5123 19.6384 37.1034 19.3958 37.5394 18.9639C37.9751 18.5318 38.22 17.946 38.22 17.3352ZM32.8209 17.1666C32.7119 17.2745 32.5641 17.3352 32.41 17.3352C32.256 17.3352 32.1081 17.2745 31.9992 17.1666L30.2562 15.4392L31.0779 14.6248L32.41 15.9453L35.4851 12.8977L36.3068 13.7117L32.8209 17.1666Z" fill="#333333"/>
<path d="M20.209 16.1836H21.371V17.3352H20.209V16.1836Z" fill="#333333"/>
<path d="M20.209 13.8804H21.371V15.032H20.209V13.8804Z" fill="#333333"/>
<path d="M20.209 18.4868H21.371V19.6384H20.209V18.4868Z" fill="#333333"/>
<path d="M20.209 20.79H21.371V21.9417H20.209V20.79Z" fill="#333333"/>
<path d="M20.209 23.0933H21.371V24.2449H20.209V23.0933Z" fill="#333333"/>
<path d="M32.41 21.366H33.572V22.5176H32.41V21.366Z" fill="#333333"/>
<path d="M32.41 23.6692H33.572V24.8208H32.41V23.6692Z" fill="#333333"/>
<path d="M8.008 21.366H9.17V22.5176H8.008V21.366Z" fill="#333333"/>
<path d="M8.008 23.6692H9.17V24.8208H8.008V23.6692Z" fill="#333333"/>
<path d="M20.209 25.3965H21.371V26.5481H20.209V25.3965Z" fill="#333333"/>
<path d="M32.41 25.9724H33.572V27.124H32.41V25.9724Z" fill="#333333"/>
<path d="M8.008 25.9724H9.17V27.124H8.008V25.9724Z" fill="#333333"/>
</svg>
