<svg width="88" height="147" viewBox="0 0 88 147" fill="none" xmlns="http://www.w3.org/2000/svg">
<mask id="path-1-inside-1_4315_9764" fill="white">
<path d="M0 5.28C0 2.36394 2.36626 -0.0165106 5.27708 0.158332C20.594 1.07836 35.4379 5.9909 48.314 14.449C62.6643 23.8753 73.9436 37.2937 80.7624 53.051C87.5812 68.8083 89.6415 86.2161 86.6896 103.13C84.0409 118.306 77.4607 132.49 67.6462 144.285C65.7811 146.527 62.426 146.622 60.3003 144.626C58.1746 142.63 58.0852 139.299 59.9319 137.042C68.3457 126.76 73.9925 114.46 76.2869 101.314C78.8846 86.4301 77.0714 71.1113 71.0709 57.2449C65.0704 43.3785 55.1446 31.5703 42.5163 23.2751C31.3626 15.9484 18.531 11.645 5.27612 10.7399C2.36684 10.5413 0 8.19606 0 5.28Z"/>
</mask>
<path d="M0 5.28C0 2.36394 2.36626 -0.0165106 5.27708 0.158332C20.594 1.07836 35.4379 5.9909 48.314 14.449C62.6643 23.8753 73.9436 37.2937 80.7624 53.051C87.5812 68.8083 89.6415 86.2161 86.6896 103.13C84.0409 118.306 77.4607 132.49 67.6462 144.285C65.7811 146.527 62.426 146.622 60.3003 144.626C58.1746 142.63 58.0852 139.299 59.9319 137.042C68.3457 126.76 73.9925 114.46 76.2869 101.314C78.8846 86.4301 77.0714 71.1113 71.0709 57.2449C65.0704 43.3785 55.1446 31.5703 42.5163 23.2751C31.3626 15.9484 18.531 11.645 5.27612 10.7399C2.36684 10.5413 0 8.19606 0 5.28Z" stroke="#CFFF93" stroke-width="8" mask="url(#path-1-inside-1_4315_9764)"/>
</svg>
