<svg width="48" height="48" viewBox="0 0 48 48" fill="none" xmlns="http://www.w3.org/2000/svg">
<path d="M17.741 33.3884H7.5V29.6901H40.5V33.3884H30.259L36.2045 39.3853L33.6122 42L25.8333 34.154V38.9359H22.1667V34.154L14.3878 42L11.7955 39.3853L17.741 33.3884ZM11.1667 7.5H36.8333C37.3196 7.5 37.7859 7.69482 38.1297 8.04161C38.4735 8.3884 38.6667 8.85874 38.6667 9.34917V27.8409H9.33333V9.34917C9.33333 8.85874 9.52649 8.3884 9.8703 8.04161C10.2141 7.69482 10.6804 7.5 11.1667 7.5ZM13 11.1983V24.1425H35V11.1983H13Z" fill="#333333"/>
<path d="M27.75 17.625L22.125 20.5478L22.125 14.7022L27.75 17.625Z" fill="#333333"/>
</svg>
