<svg width="48" height="48" viewBox="0 0 48 48" fill="none" xmlns="http://www.w3.org/2000/svg">
<path d="M16.2447 13.4199C17.9099 12.1959 19.8718 11.353 22.0027 11.0266V7C18.7721 7.37549 15.8173 8.65035 13.3925 10.5678L16.2447 13.4199Z" fill="#333333"/>
<path d="M11.0266 22.0027C11.3536 19.8719 12.1959 17.9099 13.4199 16.2447L10.5678 13.3926C8.65035 15.8179 7.37549 18.7722 7 22.0027H11.0266Z" fill="#333333"/>
<path d="M37.4322 13.3926L34.58 16.2447C35.8047 17.9099 36.647 19.8724 36.9734 22.0033H41C40.6245 18.7722 39.3496 15.8173 37.4322 13.3926Z" fill="#333333"/>
<path d="M26.5679 7.65341C29.1599 8.058 31.6171 9.07663 33.7417 10.6265L31.6919 12.6758C30.1471 11.6235 28.3929 10.8942 26.5679 10.5455V7.65341ZM25.9973 7V11.0266C28.1281 11.3536 30.0906 12.1959 31.7558 13.4199L34.608 10.5678C32.1827 8.65035 29.2278 7.37549 25.9973 7Z" fill="#333333"/>
<path d="M36.9734 25.9973C36.647 28.1282 35.8041 30.0907 34.58 31.7559L37.4322 34.608C39.3496 32.1827 40.6245 29.2278 41 25.9973H36.9734Z" fill="#333333"/>
<path d="M31.7558 34.5801C30.0906 35.8047 28.1287 36.647 25.9973 36.9734V41C29.2278 40.6245 32.1827 39.3497 34.608 37.4322L31.7558 34.5801Z" fill="#333333"/>
<path d="M13.4199 31.7559C12.1959 30.0907 11.353 28.1287 11.0266 25.9973H7C7.37549 29.2278 8.65035 32.1827 10.5678 34.608L13.4199 31.7559Z" fill="#333333"/>
<path d="M22.0027 36.9734C19.8718 36.647 17.9099 35.8041 16.2441 34.5801L13.392 37.4322C15.8173 39.3497 18.7716 40.6245 22.0021 41L22.0027 36.9734Z" fill="#333333"/>
</svg>
