<svg width="176" height="176" viewBox="0 0 176 176" fill="none" xmlns="http://www.w3.org/2000/svg">
<mask id="path-1-inside-1_4315_9758" fill="white">
<path d="M88 5.28C88 2.36394 90.3664 -0.0165142 93.2772 0.158296C111.866 1.27468 129.674 8.26648 144.093 20.1948C159.872 33.248 170.604 51.3952 174.441 71.5105C178.278 91.6257 174.98 112.449 165.115 130.394C155.25 148.339 139.435 162.282 120.395 169.82C101.355 177.359 80.2822 178.021 60.8065 171.693C41.3308 165.365 24.6718 152.443 13.6991 135.153C2.7265 117.863 -1.87266 97.2871 0.69391 76.9706C3.03932 58.4048 11.2346 41.1176 24.0213 27.5786C26.0235 25.4586 29.3781 25.574 31.3743 27.6997C33.3705 29.8254 33.2505 33.1552 31.2657 35.2915C20.2614 47.1359 13.208 62.1668 11.1706 78.2942C8.91205 96.1727 12.9593 114.279 22.6152 129.494C32.2711 144.71 46.9311 156.081 64.0697 161.65C81.2083 167.218 99.7524 166.636 116.508 160.002C133.263 153.368 147.18 141.099 155.861 125.307C164.543 109.515 167.445 91.1906 164.068 73.4892C160.692 55.7878 151.247 39.8182 137.362 28.3315C124.837 17.9698 109.406 11.841 93.2762 10.7399C90.3669 10.5412 88 8.19606 88 5.28Z"/>
</mask>
<path d="M88 5.28C88 2.36394 90.3664 -0.0165142 93.2772 0.158296C111.866 1.27468 129.674 8.26648 144.093 20.1948C159.872 33.248 170.604 51.3952 174.441 71.5105C178.278 91.6257 174.98 112.449 165.115 130.394C155.25 148.339 139.435 162.282 120.395 169.82C101.355 177.359 80.2822 178.021 60.8065 171.693C41.3308 165.365 24.6718 152.443 13.6991 135.153C2.7265 117.863 -1.87266 97.2871 0.69391 76.9706C3.03932 58.4048 11.2346 41.1176 24.0213 27.5786C26.0235 25.4586 29.3781 25.574 31.3743 27.6997C33.3705 29.8254 33.2505 33.1552 31.2657 35.2915C20.2614 47.1359 13.208 62.1668 11.1706 78.2942C8.91205 96.1727 12.9593 114.279 22.6152 129.494C32.2711 144.71 46.9311 156.081 64.0697 161.65C81.2083 167.218 99.7524 166.636 116.508 160.002C133.263 153.368 147.18 141.099 155.861 125.307C164.543 109.515 167.445 91.1906 164.068 73.4892C160.692 55.7878 151.247 39.8182 137.362 28.3315C124.837 17.9698 109.406 11.841 93.2762 10.7399C90.3669 10.5412 88 8.19606 88 5.28Z" stroke="#CFFF93" stroke-width="8" mask="url(#path-1-inside-1_4315_9758)"/>
</svg>
