<svg width="176" height="176" viewBox="0 0 176 176" fill="none" xmlns="http://www.w3.org/2000/svg">
<mask id="path-1-inside-1_4307_3093" fill="white">
<path d="M88 5.28C88 2.36394 90.3667 -0.0165129 93.2775 0.158262C114.219 1.41568 134.091 10.1245 149.24 24.8049C165.657 40.7138 175.239 62.3867 175.957 85.2359C176.675 108.085 168.473 130.317 153.088 147.225C137.702 164.133 116.341 174.391 93.5255 175.826C70.7102 177.262 48.2317 169.762 30.8485 154.916C13.4653 140.069 2.54189 119.04 0.390543 96.2815C-1.7608 73.5225 5.02883 50.8196 19.3222 32.9786C32.5118 16.5153 51.1357 5.38454 71.7547 1.51236C74.6206 0.974138 77.267 3.0392 77.6325 5.93226C77.998 8.82533 75.9435 11.4487 73.0821 12.0103C55.185 15.5231 39.0376 25.2592 27.5635 39.5812C14.9854 55.2812 9.01049 75.2598 10.9037 95.2877C12.7969 115.316 22.4095 133.821 37.7067 146.886C53.0039 159.951 72.785 166.55 92.8625 165.287C112.94 164.024 131.738 154.997 145.277 140.118C158.816 125.239 166.034 105.675 165.402 85.5676C164.77 65.4603 156.338 46.3881 141.891 32.3883C128.713 19.6173 111.473 11.9818 93.2763 10.7398C90.367 10.5412 88 8.19606 88 5.28Z"/>
</mask>
<path d="M88 5.28C88 2.36394 90.3667 -0.0165129 93.2775 0.158262C114.219 1.41568 134.091 10.1245 149.24 24.8049C165.657 40.7138 175.239 62.3867 175.957 85.2359C176.675 108.085 168.473 130.317 153.088 147.225C137.702 164.133 116.341 174.391 93.5255 175.826C70.7102 177.262 48.2317 169.762 30.8485 154.916C13.4653 140.069 2.54189 119.04 0.390543 96.2815C-1.7608 73.5225 5.02883 50.8196 19.3222 32.9786C32.5118 16.5153 51.1357 5.38454 71.7547 1.51236C74.6206 0.974138 77.267 3.0392 77.6325 5.93226C77.998 8.82533 75.9435 11.4487 73.0821 12.0103C55.185 15.5231 39.0376 25.2592 27.5635 39.5812C14.9854 55.2812 9.01049 75.2598 10.9037 95.2877C12.7969 115.316 22.4095 133.821 37.7067 146.886C53.0039 159.951 72.785 166.55 92.8625 165.287C112.94 164.024 131.738 154.997 145.277 140.118C158.816 125.239 166.034 105.675 165.402 85.5676C164.77 65.4603 156.338 46.3881 141.891 32.3883C128.713 19.6173 111.473 11.9818 93.2763 10.7398C90.367 10.5412 88 8.19606 88 5.28Z" stroke="#CFFF93" stroke-width="8" mask="url(#path-1-inside-1_4307_3093)"/>
</svg>
