<svg width="48" height="45" viewBox="0 0 48 45" fill="none" xmlns="http://www.w3.org/2000/svg">
<path d="M48 38.7674V45H0V0H6.13617V38.7674H48Z" fill="white"/>
<path fill-rule="evenodd" clip-rule="evenodd" d="M46.427 26.8607C47.4337 24.5378 47.958 21.8349 48 18.7518C48 15.5843 47.4966 12.818 46.4899 10.4529C45.5252 8.08777 44.141 6.14502 42.3373 4.6246C40.5756 3.06195 38.4573 1.90052 35.9825 1.14031C33.5077 0.380104 30.7602 0 27.7401 0C24.762 0 22.0355 0.401221 19.5607 1.20366C17.1278 1.96387 15.0305 3.1253 13.2688 4.68795C11.549 6.20837 10.2067 8.15112 9.24199 10.5162C8.27724 12.8391 7.79486 15.5632 7.79486 18.6885C7.83681 21.8138 8.34016 24.5378 9.30491 26.8607C10.2697 29.1836 11.6119 31.1052 13.3317 32.6256C15.0934 34.146 17.1907 35.2652 19.6236 35.9832C22.0565 36.7434 24.7829 37.1235 27.803 37.1235C30.7812 37.1235 33.4867 36.7434 35.9196 35.9832C38.3944 35.223 40.5126 34.0827 42.2744 32.5623C44.078 31.0418 45.4623 29.1413 46.427 26.8607ZM13.8151 17.463H17.5948C17.8121 13.0575 19.3285 8.9757 21.751 6.07453C20.0537 6.61299 18.6105 7.41781 17.4214 8.48899C15.2636 10.4289 14.0614 13.4202 13.8151 17.463ZM25.9632 5.31488C22.7086 7.50069 20.2 12.1359 19.8926 17.4631H26.7486V5.27429C26.4829 5.28371 26.2211 5.29724 25.9632 5.31488ZM29.0462 5.29374V17.4631H35.9023C35.5969 12.1675 33.1161 7.55597 29.8893 5.354C29.6127 5.32905 29.3316 5.30896 29.0462 5.29374ZM34.1917 6.25433C36.528 9.14301 37.9872 13.1475 38.2001 17.463H41.9781C41.7192 13.4202 40.4338 10.4289 38.1217 8.48899C37.0025 7.53112 35.6925 6.78623 34.1917 6.25433ZM34.1997 30.8594C35.7316 30.3358 37.0599 29.5942 38.1847 28.6345C40.4581 26.6946 41.7227 23.7033 41.9785 19.6605H38.2003H38.2003C37.9876 23.9708 36.5315 27.9714 34.1997 30.8594ZM29.9735 31.7115C33.1589 29.4876 35.5993 24.91 35.9022 19.6605H29.0461V31.7733C29.3606 31.7585 29.6697 31.7379 29.9735 31.7115ZM26.748 31.7815V19.6605H19.892C20.1955 24.9237 22.6478 29.5112 25.8458 31.7289C26.1414 31.7518 26.4421 31.7693 26.748 31.7815ZM13.8161 19.6605C14.0669 23.666 15.2897 26.6574 17.4844 28.6345C18.6462 29.643 20.0377 30.4107 21.6588 30.9375C19.29 28.0439 17.8093 24.0101 17.5947 19.6605H13.8161Z" fill="white"/>
</svg>
