<svg width="624" height="48" viewBox="0 0 624 48" fill="none" xmlns="http://www.w3.org/2000/svg">
<path d="M81.5 14L81.9531 22.4383L86.1067 16.6307L82.7378 22.8568L89.4791 19.7453L83.1909 23.5815L93 24L83.1909 24.4185L89.4791 28.2547L82.7378 25.1432L86.1067 31.3693L81.9531 25.5617L81.5 34L81.0469 25.5617L76.8933 31.3693L80.2622 25.1432L73.5209 28.2547L79.8091 24.4185L70 24L79.8091 23.5815L73.5209 19.7453L80.2622 22.8568L76.8933 16.6307L81.0469 22.4383L81.5 14Z" fill="#C0C0C0"/>
<path d="M58.5 14L58.9531 22.4383L63.1067 16.6307L59.7378 22.8568L66.4791 19.7453L60.1909 23.5815L70 24L60.1909 24.4185L66.4791 28.2547L59.7378 25.1432L63.1067 31.3693L58.9531 25.5617L58.5 34L58.0469 25.5617L53.8933 31.3693L57.2622 25.1432L50.5209 28.2547L56.8091 24.4185L47 24L56.8091 23.5815L50.5209 19.7453L57.2622 22.8568L53.8933 16.6307L58.0469 22.4383L58.5 14Z" fill="#C0C0C0"/>
<path d="M35.5 14L35.9531 22.4383L40.1067 16.6307L36.7378 22.8568L43.4791 19.7453L37.1909 23.5815L47 24L37.1909 24.4185L43.4791 28.2547L36.7378 25.1432L40.1067 31.3693L35.9531 25.5617L35.5 34L35.0469 25.5617L30.8933 31.3693L34.2622 25.1432L27.5209 28.2547L33.8091 24.4185L24 24L33.8091 23.5815L27.5209 19.7453L34.2622 22.8568L30.8933 16.6307L35.0469 22.4383L35.5 14Z" fill="#C0C0C0"/>
<path d="M117.5 24C117.5 27.1351 115.94 30.1701 113.017 32.9815C110.092 35.7942 105.834 38.3502 100.531 40.5074C89.9273 44.8207 75.2442 47.5 59 47.5C42.7558 47.5 28.0727 44.8207 17.4691 40.5074C12.166 38.3502 7.90771 35.7942 4.9831 32.9815C2.05987 30.1701 0.5 27.1351 0.5 24C0.5 20.8649 2.05987 17.8299 4.9831 15.0185C7.90771 12.2058 12.166 9.64976 17.4691 7.49258C28.0727 3.17927 42.7558 0.5 59 0.5C75.2442 0.5 89.9273 3.17927 100.531 7.49258C105.834 9.64976 110.092 12.2058 113.017 15.0185C115.94 17.8299 117.5 20.8649 117.5 24Z" stroke="#C0C0C0"/>
<path d="M171.5 29.23V29.5H169.664L168.26 26.512H161.6L160.196 29.5H158.36V29.23L163.94 17.692H165.92L171.5 29.23ZM167.486 24.892L164.93 19.474L162.374 24.892H167.486ZM182.853 20.59V20.842L178.371 29.5H176.139L171.639 20.842V20.59H173.439L177.255 27.988L181.053 20.59H182.853ZM195.987 27.97V29.5H194.799C194.211 29.5 193.719 29.386 193.323 29.158C192.927 28.93 192.651 28.606 192.495 28.186C192.015 28.702 191.439 29.086 190.767 29.338C190.095 29.59 189.303 29.716 188.391 29.716C187.107 29.716 186.117 29.494 185.421 29.05C184.725 28.594 184.377 27.946 184.377 27.106C184.377 26.386 184.647 25.81 185.187 25.378C185.727 24.946 186.519 24.676 187.563 24.568L192.369 24.064C192.333 23.392 192.051 22.882 191.523 22.534C190.995 22.186 190.239 22.012 189.255 22.012C188.307 22.012 187.551 22.174 186.987 22.498C186.423 22.822 186.141 23.254 186.141 23.794V23.866H184.431V23.794C184.431 23.122 184.629 22.528 185.025 22.012C185.433 21.484 186.003 21.082 186.735 20.806C187.467 20.518 188.313 20.374 189.273 20.374C190.797 20.374 191.979 20.71 192.819 21.382C193.659 22.054 194.079 22.996 194.079 24.208V26.98C194.079 27.292 194.175 27.538 194.367 27.718C194.559 27.886 194.835 27.97 195.195 27.97H195.987ZM188.355 28.186C189.327 28.186 190.161 28.036 190.857 27.736C191.553 27.424 192.057 26.986 192.369 26.422V25.468L187.941 25.936C187.317 25.996 186.849 26.122 186.537 26.314C186.237 26.506 186.087 26.77 186.087 27.106C186.087 27.826 186.843 28.186 188.355 28.186ZM199.512 20.59V29.5H197.784V20.59H199.512ZM198.648 19.168C198.3 19.168 198.018 19.066 197.802 18.862C197.586 18.646 197.478 18.37 197.478 18.034C197.478 17.71 197.586 17.446 197.802 17.242C198.018 17.038 198.3 16.936 198.648 16.936C198.996 16.936 199.278 17.038 199.494 17.242C199.71 17.446 199.818 17.71 199.818 18.034C199.818 18.37 199.71 18.646 199.494 18.862C199.278 19.066 198.996 19.168 198.648 19.168ZM205.599 29.5C204.723 29.5 204.057 29.302 203.601 28.906C203.157 28.498 202.935 27.904 202.935 27.124V16.972H204.663V26.836C204.663 27.244 204.759 27.538 204.951 27.718C205.143 27.886 205.461 27.97 205.905 27.97H206.679V29.5H205.599ZM219.771 27.97V29.5H218.583C217.995 29.5 217.503 29.386 217.107 29.158C216.711 28.93 216.435 28.606 216.279 28.186C215.799 28.702 215.223 29.086 214.551 29.338C213.879 29.59 213.087 29.716 212.175 29.716C210.891 29.716 209.901 29.494 209.205 29.05C208.509 28.594 208.161 27.946 208.161 27.106C208.161 26.386 208.431 25.81 208.971 25.378C209.511 24.946 210.303 24.676 211.347 24.568L216.153 24.064C216.117 23.392 215.835 22.882 215.307 22.534C214.779 22.186 214.023 22.012 213.039 22.012C212.091 22.012 211.335 22.174 210.771 22.498C210.207 22.822 209.925 23.254 209.925 23.794V23.866H208.215V23.794C208.215 23.122 208.413 22.528 208.809 22.012C209.217 21.484 209.787 21.082 210.519 20.806C211.251 20.518 212.097 20.374 213.057 20.374C214.581 20.374 215.763 20.71 216.603 21.382C217.443 22.054 217.863 22.996 217.863 24.208V26.98C217.863 27.292 217.959 27.538 218.151 27.718C218.343 27.886 218.619 27.97 218.979 27.97H219.771ZM212.139 28.186C213.111 28.186 213.945 28.036 214.641 27.736C215.337 27.424 215.841 26.986 216.153 26.422V25.468L211.725 25.936C211.101 25.996 210.633 26.122 210.321 26.314C210.021 26.506 209.871 26.77 209.871 27.106C209.871 27.826 210.627 28.186 212.139 28.186ZM226.607 20.374C227.663 20.374 228.581 20.56 229.361 20.932C230.141 21.292 230.741 21.814 231.161 22.498C231.581 23.17 231.791 23.968 231.791 24.892V25.18C231.791 26.104 231.581 26.908 231.161 27.592C230.741 28.276 230.141 28.804 229.361 29.176C228.581 29.536 227.663 29.716 226.607 29.716C225.899 29.716 225.239 29.608 224.627 29.392C224.027 29.176 223.499 28.87 223.043 28.474L222.989 29.5H221.387V16.972H223.115V21.562C223.571 21.178 224.093 20.884 224.681 20.68C225.281 20.476 225.923 20.374 226.607 20.374ZM230.009 24.892C230.009 23.968 229.691 23.248 229.055 22.732C228.431 22.216 227.561 21.958 226.445 21.958C225.737 21.958 225.089 22.09 224.501 22.354C223.913 22.606 223.451 22.948 223.115 23.38V26.692C223.451 27.136 223.913 27.49 224.501 27.754C225.089 28.006 225.737 28.132 226.445 28.132C227.549 28.132 228.419 27.868 229.055 27.34C229.691 26.812 230.009 26.092 230.009 25.18V24.892ZM237.011 29.5C236.135 29.5 235.469 29.302 235.013 28.906C234.569 28.498 234.347 27.904 234.347 27.124V16.972H236.075V26.836C236.075 27.244 236.171 27.538 236.363 27.718C236.555 27.886 236.873 27.97 237.317 27.97H238.091V29.5H237.011ZM249.617 25.612H241.031C241.091 26.392 241.427 27.01 242.039 27.466C242.651 27.91 243.467 28.132 244.487 28.132C245.435 28.132 246.203 27.976 246.791 27.664C247.391 27.34 247.715 26.914 247.763 26.386H249.617C249.521 27.43 249.017 28.246 248.105 28.834C247.205 29.422 245.999 29.716 244.487 29.716C243.419 29.716 242.489 29.536 241.697 29.176C240.905 28.804 240.293 28.282 239.861 27.61C239.441 26.938 239.231 26.152 239.231 25.252V24.874C239.231 23.962 239.441 23.17 239.861 22.498C240.293 21.814 240.905 21.292 241.697 20.932C242.489 20.56 243.419 20.374 244.487 20.374C246.083 20.374 247.337 20.77 248.249 21.562C249.161 22.342 249.617 23.422 249.617 24.802V25.612ZM244.487 21.958C243.527 21.958 242.747 22.156 242.147 22.552C241.559 22.936 241.199 23.476 241.067 24.172H247.781C247.673 23.476 247.331 22.936 246.755 22.552C246.179 22.156 245.423 21.958 244.487 21.958ZM263.95 29.716C262.342 29.716 261.076 29.458 260.152 28.942C259.228 28.426 258.766 27.718 258.766 26.818V26.692H260.494V26.818C260.494 27.706 261.658 28.15 263.986 28.15C265.018 28.15 265.804 28.054 266.344 27.862C266.884 27.658 267.154 27.37 267.154 26.998V26.872C267.154 26.572 266.986 26.35 266.65 26.206C266.314 26.062 265.72 25.942 264.868 25.846L262.798 25.63C261.514 25.498 260.578 25.24 259.99 24.856C259.402 24.472 259.108 23.92 259.108 23.2V23.02C259.108 22.192 259.534 21.544 260.386 21.076C261.238 20.608 262.42 20.374 263.932 20.374C265.492 20.374 266.71 20.632 267.586 21.148C268.462 21.652 268.9 22.354 268.9 23.254V23.38H267.19V23.254C267.19 22.822 266.908 22.492 266.344 22.264C265.792 22.036 264.964 21.922 263.86 21.922C262.924 21.922 262.192 22.018 261.664 22.21C261.148 22.39 260.89 22.648 260.89 22.984V23.11C260.89 23.41 261.034 23.638 261.322 23.794C261.622 23.95 262.12 24.058 262.816 24.118L264.922 24.316C266.326 24.448 267.346 24.718 267.982 25.126C268.618 25.522 268.936 26.092 268.936 26.836V27.016C268.936 27.856 268.492 28.516 267.604 28.996C266.716 29.476 265.498 29.716 263.95 29.716ZM276.253 29.716C275.161 29.716 274.213 29.536 273.409 29.176C272.605 28.804 271.987 28.282 271.555 27.61C271.123 26.926 270.907 26.128 270.907 25.216V24.91C270.907 23.986 271.123 23.182 271.555 22.498C271.987 21.814 272.605 21.292 273.409 20.932C274.213 20.56 275.161 20.374 276.253 20.374C277.333 20.374 278.269 20.56 279.061 20.932C279.865 21.292 280.477 21.814 280.897 22.498C281.329 23.182 281.545 23.986 281.545 24.91V25.216C281.545 26.128 281.329 26.926 280.897 27.61C280.477 28.282 279.865 28.804 279.061 29.176C278.269 29.536 277.333 29.716 276.253 29.716ZM276.235 28.132C277.339 28.132 278.203 27.874 278.827 27.358C279.451 26.842 279.763 26.128 279.763 25.216V24.91C279.763 23.986 279.451 23.266 278.827 22.75C278.203 22.222 277.339 21.958 276.235 21.958C275.107 21.958 274.231 22.216 273.607 22.732C272.995 23.248 272.689 23.974 272.689 24.91V25.216C272.689 26.128 273.001 26.842 273.625 27.358C274.261 27.874 275.131 28.132 276.235 28.132ZM288.575 29.716C287.483 29.716 286.535 29.536 285.731 29.176C284.927 28.804 284.309 28.282 283.877 27.61C283.445 26.926 283.229 26.128 283.229 25.216V24.91C283.229 23.986 283.445 23.182 283.877 22.498C284.309 21.814 284.927 21.292 285.731 20.932C286.535 20.56 287.483 20.374 288.575 20.374C289.655 20.374 290.591 20.56 291.383 20.932C292.187 21.292 292.799 21.814 293.219 22.498C293.651 23.182 293.867 23.986 293.867 24.91V25.216C293.867 26.128 293.651 26.926 293.219 27.61C292.799 28.282 292.187 28.804 291.383 29.176C290.591 29.536 289.655 29.716 288.575 29.716ZM288.557 28.132C289.661 28.132 290.525 27.874 291.149 27.358C291.773 26.842 292.085 26.128 292.085 25.216V24.91C292.085 23.986 291.773 23.266 291.149 22.75C290.525 22.222 289.661 21.958 288.557 21.958C287.429 21.958 286.553 22.216 285.929 22.732C285.317 23.248 285.011 23.974 285.011 24.91V25.216C285.011 26.128 285.323 26.842 285.947 27.358C286.583 27.874 287.453 28.132 288.557 28.132ZM301.365 20.374C302.925 20.374 304.101 20.764 304.893 21.544C305.697 22.312 306.099 23.446 306.099 24.946V29.5H304.389V24.946C304.389 23.974 304.113 23.236 303.561 22.732C303.021 22.216 302.235 21.958 301.203 21.958C300.495 21.958 299.847 22.12 299.259 22.444C298.683 22.768 298.251 23.2 297.963 23.74V29.5H296.235V20.59H297.837L297.909 21.742C298.797 20.854 299.949 20.398 301.365 20.374Z" fill="#C0C0C0"/>
<line x1="324" y1="23.5" x2="458" y2="23.5" stroke="#C0C0C0"/>
<path d="M576 14.9773C578.172 13.0562 580.988 11.9958 583.904 12C586.064 11.9992 588.183 12.5804 590.033 13.6809C591.882 14.7814 593.392 16.3595 594.4 18.2449H583.904C582.813 18.2447 581.745 18.5631 580.836 19.1601C579.927 19.7571 579.217 20.6059 578.795 21.6L576 14.9773Z" fill="#C0C0C0"/>
<path d="M574.804 16C573.543 17.5113 572.67 19.3087 572.262 21.2352C571.854 23.1618 571.923 25.1591 572.464 27.0527C573.004 28.9464 573.999 30.6788 575.362 32.099C576.725 33.5191 578.414 34.5838 580.282 35.2L584.8 29.3163C583.41 29.504 582.001 29.1652 580.847 28.3662C579.694 27.5673 578.881 26.3659 578.566 24.9976C578.535 24.9512 578.509 24.9016 578.488 24.8497L574.804 16Z" fill="#C0C0C0"/>
<path d="M581.6 35.8218C583.715 36.1816 585.889 35.9946 587.907 35.2794C589.924 34.5643 591.715 33.3459 593.1 31.7456C594.485 30.1453 595.416 28.2189 595.801 26.1581C596.186 24.0974 596.011 21.9742 595.294 20C595.254 20.0054 595.215 20.0081 595.176 20.008H587.72C588.266 20.5286 588.699 21.1505 588.994 21.837C589.29 22.5235 589.442 23.2608 589.441 24.0054C589.444 25.4354 588.885 26.8121 587.877 27.8509L581.6 35.8218Z" fill="#C0C0C0"/>
<path d="M580 24C580 22.9391 580.421 21.9217 581.172 21.1716C581.922 20.4214 582.939 20 584 20C585.061 20 586.078 20.4214 586.828 21.1716C587.579 21.9217 588 22.9391 588 24C588 25.0609 587.579 26.0783 586.828 26.8284C586.078 27.5786 585.061 28 584 28C582.939 28 581.922 27.5786 581.172 26.8284C580.421 26.0783 580 25.0609 580 24Z" fill="#C0C0C0"/>
<path d="M540.586 12.8967L541.742 10.7555C541.757 10.728 541.766 10.6979 541.77 10.6667C541.773 10.6355 541.771 10.604 541.762 10.5739C541.754 10.5437 541.74 10.5156 541.721 10.4911C541.702 10.4665 541.678 10.4461 541.651 10.4309C541.625 10.4157 541.595 10.4061 541.565 10.4026C541.534 10.3991 541.504 10.4017 541.474 10.4104C541.445 10.4191 541.417 10.4336 541.394 10.4531C541.37 10.4727 541.35 10.4968 541.335 10.5243L540.166 12.6878C539.169 12.239 538.091 12.0072 537.002 12.0072C535.913 12.0072 534.835 12.239 533.837 12.6878L532.669 10.5243C532.639 10.4685 532.589 10.4273 532.529 10.4095C532.47 10.3918 532.406 10.399 532.351 10.4297C532.297 10.4604 532.257 10.5119 532.239 10.573C532.222 10.6341 532.229 10.6997 532.259 10.7555L533.416 12.8967C532.315 13.4537 531.385 14.3108 530.728 15.3742C530.071 16.4375 529.712 17.666 529.69 18.925H544.313C544.291 17.6658 543.932 16.4371 543.274 15.3737C542.617 14.3103 541.687 13.4533 540.586 12.8967ZM533.628 16.1791C533.507 16.1791 533.389 16.1423 533.288 16.0734C533.188 16.0045 533.109 15.9065 533.063 15.7919C533.017 15.6773 533.005 15.5512 533.029 15.4296C533.052 15.308 533.111 15.1963 533.196 15.1087C533.282 15.0211 533.391 14.9615 533.509 14.9374C533.628 14.9134 533.751 14.926 533.862 14.9736C533.974 15.0212 534.069 15.1018 534.136 15.205C534.203 15.3082 534.239 15.4295 534.239 15.5536C534.238 15.7196 534.174 15.8787 534.059 15.996C533.945 16.1133 533.79 16.1791 533.628 16.1791ZM540.377 16.1791C540.256 16.1791 540.138 16.1423 540.038 16.0734C539.937 16.0045 539.859 15.9065 539.813 15.7919C539.766 15.6773 539.754 15.5512 539.778 15.4296C539.802 15.308 539.86 15.1963 539.946 15.1087C540.031 15.0211 540.14 14.9615 540.259 14.9374C540.377 14.9134 540.5 14.926 540.612 14.9736C540.723 15.0212 540.819 15.1018 540.886 15.205C540.953 15.3082 540.988 15.4295 540.988 15.5536C540.988 15.7196 540.923 15.8787 540.809 15.996C540.694 16.1133 540.539 16.1791 540.377 16.1791ZM529.688 30.393C529.688 30.6316 529.733 30.8681 529.822 31.0886C529.911 31.3092 530.042 31.5096 530.206 31.6783C530.371 31.847 530.566 31.9808 530.781 32.0719C530.996 32.1629 531.226 32.2096 531.459 32.2091H532.631V35.918C532.631 36.3641 532.804 36.7919 533.111 37.1074C533.419 37.4228 533.836 37.6 534.271 37.6C534.705 37.6 535.122 37.4228 535.43 37.1074C535.737 36.7919 535.91 36.3641 535.91 35.918V32.2091H538.095V35.918C538.095 36.3639 538.268 36.7916 538.575 37.1069C538.882 37.4222 539.299 37.5994 539.734 37.5994C540.168 37.5994 540.585 37.4222 540.892 37.1069C541.2 36.7916 541.372 36.3639 541.372 35.918V32.2091H542.546C542.778 32.2092 543.008 32.1624 543.223 32.0713C543.438 31.9801 543.633 31.8464 543.797 31.6779C543.961 31.5093 544.091 31.3092 544.18 31.0889C544.269 30.8686 544.315 30.6326 544.315 30.3942V19.5184H529.688V30.393ZM527.439 19.2291C527.004 19.2298 526.587 19.4073 526.28 19.7227C525.973 20.0382 525.8 20.4658 525.8 20.9117V27.9203C525.8 28.1411 525.842 28.3598 525.925 28.5638C526.007 28.7678 526.128 28.9531 526.28 29.1093C526.432 29.2654 526.613 29.3892 526.812 29.4737C527.01 29.5582 527.223 29.6017 527.439 29.6017C527.654 29.6017 527.867 29.5582 528.066 29.4737C528.264 29.3892 528.445 29.2654 528.597 29.1093C528.749 28.9531 528.87 28.7678 528.952 28.5638C529.035 28.3598 529.077 28.1411 529.077 27.9203V20.9117C529.077 20.466 528.904 20.0387 528.597 19.7235C528.289 19.4083 527.873 19.231 527.439 19.2303V19.2291ZM546.561 19.2291C546.127 19.2298 545.71 19.4073 545.403 19.7227C545.096 20.0382 544.923 20.4658 544.923 20.9117V27.9203C544.923 28.1411 544.965 28.3598 545.048 28.5638C545.13 28.7678 545.251 28.9531 545.403 29.1093C545.555 29.2654 545.736 29.3892 545.934 29.4737C546.133 29.5582 546.346 29.6017 546.561 29.6017C546.777 29.6017 546.99 29.5582 547.189 29.4737C547.387 29.3892 547.568 29.2654 547.72 29.1093C547.872 28.9531 547.993 28.7678 548.075 28.5638C548.158 28.3598 548.2 28.1411 548.2 27.9203V20.9117C548.199 20.466 548.027 20.0387 547.719 19.7235C547.412 19.4083 546.996 19.231 546.561 19.2303V19.2291Z" fill="#C0C0C0"/>
<path d="M497.464 35.7087C496.016 37.1441 494.436 36.9174 492.915 36.2375C491.305 35.5425 489.828 35.5123 488.13 36.2375C486.003 37.1743 484.88 36.9023 483.61 35.7087C476.403 28.1088 477.467 16.5351 485.648 16.1121C487.642 16.2178 489.031 17.2301 490.197 17.3208C491.94 16.9582 493.609 15.9156 495.47 16.0516C497.7 16.2329 499.383 17.1395 500.491 18.7713C495.883 21.5967 496.976 27.8066 501.2 29.5441C500.358 31.8105 499.265 34.0618 497.449 35.7238L497.464 35.7087ZM490.05 16.0214C489.828 12.6521 492.501 9.87196 495.573 9.59999C496.001 13.4982 492.117 16.3991 490.05 16.0214Z" fill="#C0C0C0"/>
<rect x="134.5" y="0.5" width="489" height="47" rx="23.5" stroke="#C0C0C0"/>
</svg>
