<svg width="626" height="117" viewBox="0 0 626 117" fill="none" xmlns="http://www.w3.org/2000/svg">
<path d="M105.632 97.3296C101.635 102.707 96.0386 107.188 88.8432 110.772C81.6479 114.257 72.3039 116 60.8113 116C51.4174 116 43.0228 114.805 35.6276 112.415C28.2324 109.926 21.9365 106.391 16.7398 101.811C11.6431 97.1305 7.74564 91.5045 5.04738 84.9325C2.34913 78.261 1 70.6932 1 62.2293V59.3914C1 50.5292 2.34913 42.7126 5.04738 35.9415C7.74564 29.1703 11.6431 23.4945 16.7398 18.9141C21.9365 14.234 28.2324 10.7489 35.6276 8.45867C43.0228 6.06885 51.4174 4.87395 60.8113 4.87395C76.7011 4.87395 89.5927 8.11015 99.4863 14.5826C109.48 21.0549 115.576 30.8133 117.775 43.8577H101.885C100.885 39.9743 99.1865 36.4393 96.7881 33.2529C94.4896 29.9669 91.5415 27.2286 87.9438 25.038C84.4461 22.7477 80.3987 21.0052 75.8017 19.8102C71.3046 18.5158 66.3078 17.8685 60.8113 17.8685C53.5161 17.8685 47.0702 18.9141 41.4738 21.0052C35.9774 23.0962 31.3804 26.0337 27.6828 29.8176C23.9851 33.6014 21.187 38.1321 19.2882 43.4096C17.4893 48.5875 16.5899 54.3629 16.5899 60.7357C16.5899 66.8098 17.4893 72.4358 19.2882 77.6137C21.187 82.7916 23.9851 87.2725 27.6828 91.0564C31.3804 94.7407 35.9774 97.6782 41.4738 99.8688C47.0702 101.96 53.5161 103.005 60.8113 103.005C67.8068 103.005 73.9029 102.209 79.0995 100.616C84.2962 99.0224 88.6933 96.8318 92.291 94.0437C95.9886 91.2555 98.8867 88.0691 100.985 84.4844C103.184 80.8001 104.633 76.9167 105.333 72.8341H48.5193V60.437H120.323V113.076H105.632V97.3296Z" stroke="white"/>
<path d="M254.317 98.4538V113.028H139.884V7.79832H154.513V98.4538H254.317Z" stroke="white"/>
<path d="M376.574 83.757C376.574 88.4559 375.629 92.805 373.738 96.8041C371.948 100.703 368.914 104.103 364.636 107.002C360.359 109.801 354.688 112.001 347.625 113.601C340.662 115.2 331.957 116 321.512 116C311.067 116 302.512 114.8 295.847 112.401C289.281 110.001 284.058 106.952 280.179 103.253C276.399 99.4536 273.663 95.3045 271.972 90.8054C270.38 86.2064 269.385 81.7074 268.987 77.3083H284.805C285.401 85.4066 288.784 91.7052 294.951 96.2043C301.219 100.603 310.221 102.803 321.96 102.803C334.096 102.803 343.646 101.403 350.61 98.6037C357.673 95.7044 361.254 91.1054 361.353 84.8067C361.453 78.5081 358.369 74.0091 352.102 71.3096C345.835 68.6102 336.086 66.8606 322.855 66.0608C314.101 65.7608 306.491 65.161 300.025 64.2612C293.658 63.3614 288.386 61.8617 284.208 59.7621C280.03 57.6626 276.946 54.8132 274.956 51.214C272.967 47.6147 271.972 42.9158 271.972 37.117C271.972 32.8179 272.967 28.7188 274.956 24.8197C276.946 20.9205 280.079 17.5212 284.357 14.6218C288.734 11.6225 294.305 9.273 301.069 7.57337C307.834 5.77376 315.991 4.87395 325.541 4.87395C335.787 4.87395 344.094 6.0237 350.46 8.32321C356.927 10.6227 362 13.5721 365.681 17.1713C369.461 20.7705 372.097 24.8197 373.589 29.3187C375.181 33.8177 376.176 38.2668 376.574 42.6658H360.757C360.359 37.9668 359.215 34.0677 357.324 30.9683C355.434 27.769 352.898 25.2196 349.714 23.32C346.631 21.4204 343 20.0707 338.821 19.2708C334.643 18.471 330.067 18.0711 325.093 18.0711C319.423 18.0711 314.25 18.421 309.575 19.1209C304.999 19.8207 301.02 20.9205 297.637 22.4202C294.354 23.8199 291.768 25.6695 289.878 27.969C288.087 30.1685 287.192 32.8679 287.192 36.0672C287.192 39.1666 287.888 41.766 289.281 43.8655C290.773 45.8651 293.061 47.5148 296.145 48.8145C299.229 50.0142 303.158 50.964 307.933 51.6639C312.808 52.2637 318.528 52.7636 325.093 53.1635C334.245 53.6634 342.055 54.5133 348.521 55.713C354.987 56.8128 360.309 58.5124 364.487 60.8119C368.665 63.1114 371.699 66.1108 373.589 69.81C375.579 73.5092 376.574 78.1582 376.574 83.757Z" stroke="white"/>
<path d="M498.831 83.757C498.831 88.4559 497.886 92.805 495.996 96.8041C494.205 100.703 491.171 104.103 486.893 107.002C482.616 109.801 476.945 112.001 469.882 113.601C462.919 115.2 454.215 116 443.769 116C433.324 116 424.769 114.8 418.104 112.401C411.538 110.001 406.316 106.952 402.436 103.253C398.656 99.4536 395.92 95.3045 394.229 90.8054C392.637 86.2064 391.642 81.7074 391.245 77.3083H407.062C407.658 85.4066 411.041 91.7052 417.208 96.2043C423.476 100.603 432.478 102.803 444.217 102.803C456.353 102.803 465.903 101.403 472.867 98.6037C479.93 95.7044 483.511 91.1054 483.61 84.8067C483.71 78.5081 480.626 74.0091 474.359 71.3096C468.092 68.6102 458.343 66.8606 445.112 66.0608C436.358 65.7608 428.748 65.161 422.282 64.2612C415.915 63.3614 410.643 61.8617 406.465 59.7621C402.287 57.6626 399.203 54.8132 397.213 51.214C395.224 47.6147 394.229 42.9158 394.229 37.117C394.229 32.8179 395.224 28.7188 397.213 24.8197C399.203 20.9205 402.336 17.5212 406.614 14.6218C410.991 11.6225 416.562 9.273 423.326 7.57337C430.091 5.77376 438.248 4.87395 447.798 4.87395C458.044 4.87395 466.351 6.0237 472.718 8.32321C479.184 10.6227 484.257 13.5721 487.938 17.1713C491.718 20.7705 494.354 24.8197 495.846 29.3187C497.438 33.8177 498.433 38.2668 498.831 42.6658H483.014C482.616 37.9668 481.472 34.0677 479.582 30.9683C477.691 27.769 475.155 25.2196 471.971 23.32C468.888 21.4204 465.257 20.0707 461.079 19.2708C456.9 18.471 452.324 18.0711 447.35 18.0711C441.68 18.0711 436.507 18.421 431.832 19.1209C427.256 19.8207 423.277 20.9205 419.894 22.4202C416.612 23.8199 414.025 25.6695 412.135 27.969C410.344 30.1685 409.449 32.8679 409.449 36.0672C409.449 39.1666 410.145 41.766 411.538 43.8655C413.03 45.8651 415.318 47.5148 418.402 48.8145C421.486 50.0142 425.415 50.964 430.19 51.6639C435.065 52.2637 440.785 52.7636 447.35 53.1635C456.503 53.6634 464.312 54.5133 470.778 55.713C477.244 56.8128 482.566 58.5124 486.744 60.8119C490.922 63.1114 493.956 66.1108 495.846 69.81C497.836 73.5092 498.831 78.1582 498.831 83.757Z" stroke="white"/>
<path d="M612.002 99.916V113.028H520.863V99.916H558.962V81.2571L508.611 7.79832H526.391L566.731 67.1018L607.37 7.79832H625L573.604 81.8531V99.916H612.002Z" stroke="white"/>
<path d="M254.317 51.6206L254.817 51.6276V51.6206H254.317ZM250.567 70.5708L250.109 70.3686L250.108 70.3727L250.567 70.5708ZM250.717 32.2263L250.255 32.4184L250.258 32.4254L250.717 32.2263ZM240.817 18.6058L240.488 18.9833L240.498 18.9913L240.817 18.6058ZM225.667 10.4632L225.811 9.98442L225.667 10.4632ZM186.517 10.6112L186.663 11.0893L186.668 11.0877L186.517 10.6112ZM171.517 18.7539L171.844 19.1317L171.845 19.1312L171.517 18.7539ZM161.917 32.3743L162.377 32.5694L162.379 32.5664L161.917 32.3743ZM158.467 51.4726H157.967L157.967 51.4794L158.467 51.4726ZM162.067 70.5708L161.607 70.7659L162.067 70.5708ZM171.667 84.0432L171.339 84.4211L171.344 84.4249L171.667 84.0432ZM186.667 91.8897L186.813 91.4116L186.806 91.4094L186.667 91.8897ZM225.517 91.8897L225.373 91.411L225.37 91.4117L225.517 91.8897ZM240.667 83.8951L240.348 83.5097L240.344 83.5134L240.667 83.8951ZM181.83 48.6088V49.1088H182.306L182.33 48.6339L181.83 48.6088ZM172.819 48.6088L172.32 48.5778L172.287 49.1088H172.819V48.6088ZM191.739 21.9943L192.119 22.3185L193.239 21.0041L191.59 21.5168L191.739 21.9943ZM181.417 27.6368L181.748 28.0119L181.748 28.0116L181.417 27.6368ZM187.308 48.6089L186.809 48.5795L186.778 49.1089H187.308V48.6089ZM201.781 20.219L201.747 19.7201L201.616 19.7289L201.506 19.8014L201.781 20.219ZM203.653 48.6089V49.1089H204.153V48.6089H203.653ZM203.653 20.1241H204.153V19.6065L203.636 19.6244L203.653 20.1241ZM209.131 48.6089H208.631V49.1089H209.131V48.6089ZM209.131 20.1696L209.157 19.6703L208.631 19.6428V20.1696H209.131ZM225.475 48.6089V49.1089H226.006L225.975 48.5796L225.475 48.6089ZM211.141 20.3104L211.419 19.8948L211.312 19.8236L211.185 19.8124L211.141 20.3104ZM230.954 48.6088L230.454 48.6339L230.478 49.1088H230.954V48.6088ZM221.397 22.4145L221.561 21.9422L219.876 21.3568L221.012 22.7327L221.397 22.4145ZM239.96 48.6088V49.1088H240.494L240.459 48.5762L239.96 48.6088ZM230.767 27.6368L230.445 28.0199L230.449 28.0229L230.767 27.6368ZM221.417 79.9156L221.031 79.5977L219.922 80.9435L221.575 80.3897L221.417 79.9156ZM230.917 74.7161L230.596 74.3326L230.917 74.7161ZM239.961 53.7442L240.46 53.7764L240.495 53.2442H239.961V53.7442ZM230.954 53.7442V53.2442H230.478L230.455 53.7191L230.954 53.7442ZM225.475 53.7442L225.974 53.7736L226.006 53.2442H225.475V53.7442ZM211.341 81.907L211.384 82.4052L211.515 82.394L211.624 82.3196L211.341 81.907ZM209.13 53.7442V53.2442H208.63V53.7442H209.13ZM209.13 82.0515H208.63V82.5751L209.153 82.5509L209.13 82.0515ZM203.652 53.7442H204.152V53.2442H203.652V53.7442ZM203.652 82.0705L203.632 82.5701L204.152 82.5903V82.0705H203.652ZM187.307 53.7442V53.2442H186.776L186.808 53.7736L187.307 53.7442ZM201.501 81.9476L201.219 82.3611L201.33 82.4361L201.463 82.4462L201.501 81.9476ZM172.822 53.7442V53.2442H172.289L172.323 53.7761L172.822 53.7442ZM181.567 74.7161L181.236 75.091L181.243 75.0969L181.567 74.7161ZM191.519 80.0982L191.367 80.5746L193.003 81.096L191.903 79.7777L191.519 80.0982ZM181.83 53.7442L182.329 53.7191L182.306 53.2442H181.83V53.7442ZM253.817 51.6137C253.717 58.7655 252.477 65.0134 250.109 70.3686L251.024 70.773C253.456 65.2713 254.716 58.8858 254.817 51.6276L253.817 51.6137ZM250.258 32.4254C252.625 37.8771 253.817 44.2715 253.817 51.6206H254.817C254.817 44.1649 253.608 37.6297 251.175 32.0271L250.258 32.4254ZM240.498 18.9913C244.731 22.4888 247.984 26.9607 250.255 32.4184L251.178 32.0342C248.849 26.4376 245.502 21.8292 241.135 18.2204L240.498 18.9913ZM225.523 10.942C231.362 12.7003 236.347 15.3825 240.489 18.9832L241.145 18.2285C236.886 14.5255 231.771 11.7792 225.811 9.98442L225.523 10.942ZM206.017 8.29832C213.176 8.29832 219.676 9.18159 225.523 10.942L225.811 9.98442C219.857 8.19163 213.258 7.29832 206.017 7.29832V8.29832ZM186.668 11.0877C192.513 9.23013 198.961 8.29832 206.017 8.29832V7.29832C198.873 7.29832 192.321 8.24179 186.365 10.1347L186.668 11.0877ZM171.845 19.1312C175.988 15.5293 180.924 12.8473 186.663 11.0893L186.37 10.1332C180.51 11.9284 175.446 14.6748 171.189 18.3766L171.845 19.1312ZM162.379 32.5664C164.652 27.1033 167.809 22.6291 171.844 19.1317L171.19 18.376C167.025 21.985 163.782 26.5911 161.455 32.1822L162.379 32.5664ZM158.967 51.4726C158.967 44.2203 160.109 37.9233 162.377 32.5694L161.457 32.1793C159.125 37.6823 157.967 44.1173 157.967 51.4726H158.967ZM162.527 70.3757C160.258 65.0193 159.066 58.7197 158.967 51.4657L157.967 51.4794C158.068 58.8329 159.276 65.2654 161.607 70.7659L162.527 70.3757ZM171.994 83.6653C167.957 80.1664 164.8 75.7401 162.527 70.3757L161.607 70.7659C163.934 76.2584 167.177 80.8137 171.34 84.421L171.994 83.6653ZM186.806 91.4094C181.067 89.7492 176.131 87.1649 171.99 83.6615L171.344 84.4249C175.603 88.0278 180.667 90.6745 186.528 92.37L186.806 91.4094ZM206.167 94.0546C199.007 94.0546 192.558 93.1713 186.813 91.4117L186.52 92.3678C192.376 94.1613 198.926 95.0546 206.167 95.0546V94.0546ZM225.37 91.4117C219.625 93.1715 213.225 94.0546 206.167 94.0546V95.0546C213.308 95.0546 219.808 94.1612 225.663 92.3678L225.37 91.4117ZM240.344 83.5134C236.202 87.0173 231.215 89.6518 225.373 91.411L225.661 92.3685C231.619 90.5745 236.731 87.8793 240.99 84.2768L240.344 83.5134ZM250.108 70.3727C247.838 75.6328 244.585 80.009 240.348 83.5097L240.985 84.2806C245.349 80.6749 248.696 76.1683 251.026 70.7689L250.108 70.3727ZM181.83 48.1088H172.819V49.1088H181.83V48.1088ZM191.358 21.67C185.502 28.5443 181.854 38.1926 181.331 48.5837L182.33 48.6339C182.843 38.4341 186.424 29.0041 192.119 22.3185L191.358 21.67ZM191.59 21.5168C187.485 22.7936 183.98 24.7066 181.086 27.262L181.748 28.0116C184.524 25.5603 187.9 23.7117 191.887 22.4717L191.59 21.5168ZM181.086 27.2617C175.809 31.912 172.913 39.0489 172.32 48.5778L173.318 48.6398C173.901 39.273 176.736 32.4286 181.748 28.0119L181.086 27.2617ZM187.807 48.6383C188.533 36.313 194.454 25.6411 202.056 20.6366L201.506 19.8014C193.589 25.0132 187.549 36.0059 186.809 48.5795L187.807 48.6383ZM203.653 48.1089H187.308V49.1089H203.653V48.1089ZM203.153 20.1241V48.6089H204.153V20.1241H203.153ZM203.636 19.6244C202.997 19.6466 202.367 19.6785 201.747 19.7201L201.814 20.7179C202.423 20.677 203.042 20.6457 203.67 20.6238L203.636 19.6244ZM209.631 48.6089V20.1696H208.631V48.6089H209.631ZM225.475 48.1089H209.131V49.1089H225.475V48.1089ZM210.863 20.726C218.4 25.7683 224.256 36.3865 224.976 48.6383L225.975 48.5796C225.239 36.0801 219.266 25.1444 211.419 19.8948L210.863 20.726ZM211.185 19.8124C210.519 19.7535 209.843 19.7062 209.157 19.6703L209.104 20.6689C209.779 20.7042 210.443 20.7507 211.096 20.8085L211.185 19.8124ZM231.453 48.5837C230.941 38.4046 227.429 28.9397 221.783 22.0963L221.012 22.7327C226.505 29.3907 229.951 38.6427 230.454 48.6339L231.453 48.5837ZM239.96 48.1088H230.954V49.1088H239.96V48.1088ZM240.459 48.5762C239.836 39.0376 236.735 31.8979 231.084 27.2506L230.449 28.0229C235.823 32.4427 238.85 39.2843 239.461 48.6414L240.459 48.5762ZM231.088 27.2537C228.369 24.9729 225.192 23.2034 221.561 21.9422L221.233 22.8868C224.759 24.1116 227.828 25.8237 230.445 28.0198L231.088 27.2537ZM221.575 80.3897C225.281 79.1484 228.504 77.3864 231.237 75.0997L230.596 74.3326C227.967 76.5315 224.857 78.2358 221.258 79.4415L221.575 80.3897ZM231.237 75.0997C236.795 70.4516 239.845 63.3125 240.46 53.7764L239.462 53.712C238.858 63.0715 235.879 69.9137 230.596 74.3326L231.237 75.0997ZM230.954 54.2442H239.961V53.2442H230.954V54.2442ZM230.954 54.2442H230.954V53.2442H230.954V54.2442ZM221.802 80.2334C227.438 73.3916 230.942 63.9363 231.453 53.7694L230.455 53.7191C229.952 63.6983 226.513 72.9411 221.031 79.5977L221.802 80.2334ZM224.976 53.7148C224.261 65.8595 218.502 76.4007 211.059 81.4944L211.624 82.3196C219.369 77.0187 225.245 66.1647 225.974 53.7736L224.976 53.7148ZM209.13 54.2442H225.475V53.2442H209.13V54.2442ZM209.63 82.0515V53.7442H208.63V82.0515H209.63ZM209.153 82.5509C209.909 82.5159 210.653 82.4674 211.384 82.4052L211.299 81.4088C210.581 81.4699 209.851 81.5176 209.107 81.552L209.153 82.5509ZM203.152 53.7442V82.0705H204.152V53.7442H203.152ZM187.307 54.2442H203.652V53.2442H187.307V54.2442ZM201.782 81.5341C194.31 76.4549 188.522 65.8913 187.806 53.7149L186.808 53.7736C187.538 66.1969 193.443 77.0747 201.219 82.3611L201.782 81.5341ZM201.463 82.4462C202.174 82.5002 202.897 82.5415 203.632 82.5701L203.671 81.5709C202.948 81.5427 202.237 81.5021 201.538 81.449L201.463 82.4462ZM172.323 53.7761C172.926 63.2222 175.874 70.3561 181.236 75.0909L181.898 74.3414C176.795 69.8352 173.913 62.9878 173.321 53.7123L172.323 53.7761ZM181.243 75.0969C184.069 77.5014 187.446 79.3256 191.367 80.5746L191.671 79.6218C187.862 78.4084 184.605 76.6445 181.891 74.3353L181.243 75.0969ZM181.331 53.7693C181.847 64.0288 185.41 73.563 191.135 80.4187L191.903 79.7777C186.333 73.1086 182.836 63.7895 182.329 53.7191L181.331 53.7693ZM172.822 54.2442H181.83V53.2442H172.822V54.2442Z" fill="white"/>
<path d="M105.632 92.4557C101.635 97.8328 96.0386 102.314 88.8432 105.898C81.6479 109.383 72.3039 111.126 60.8113 111.126C51.4174 111.126 43.0228 109.931 35.6276 107.541C28.2324 105.052 21.9365 101.517 16.7398 96.9366C11.6431 92.2565 7.74564 86.6305 5.04738 80.0586C2.34913 73.387 1 65.8193 1 57.3554V54.5175C1 45.6553 2.34913 37.8386 5.04738 31.0675C7.74564 24.2964 11.6431 18.6206 16.7398 14.0401C21.9365 9.36009 28.2324 5.87495 35.6276 3.58472C43.0228 1.19491 51.4174 0 60.8113 0C76.7011 0 89.5927 3.2362 99.4863 9.7086C109.48 16.181 115.576 25.9394 117.775 38.9837H101.885C100.885 35.1003 99.1865 31.5654 96.7881 28.379C94.4896 25.093 91.5415 22.3547 87.9438 20.164C84.4461 17.8738 80.3987 16.1312 75.8017 14.9363C71.3046 13.6418 66.3078 12.9946 60.8113 12.9946C53.5161 12.9946 47.0702 14.0401 41.4738 16.1312C35.9774 18.2223 31.3804 21.1598 27.6828 24.9436C23.9851 28.7275 21.187 33.2582 19.2882 38.5357C17.4893 43.7136 16.5899 49.4889 16.5899 55.8618C16.5899 61.9359 17.4893 67.5619 19.2882 72.7398C21.187 77.9177 23.9851 82.3986 27.6828 86.1824C31.3804 89.8667 35.9774 92.8042 41.4738 94.9949C47.0702 97.0859 53.5161 98.1315 60.8113 98.1315C67.8068 98.1315 73.9029 97.3349 79.0995 95.7417C84.2962 94.1485 88.6933 91.9578 92.291 89.1697C95.9886 86.3816 98.8867 83.1952 100.985 79.6105C103.184 75.9262 104.633 72.0427 105.333 67.9602H48.5193V55.563H120.323V108.202H105.632V92.4557Z" fill="white"/>
<path d="M254.317 93.5798V108.154H139.884V2.92437H154.513V93.5798H254.317Z" fill="white"/>
<path d="M376.574 78.883C376.574 83.582 375.629 87.9311 373.738 91.9302C371.948 95.8293 368.914 99.2286 364.636 102.128C360.359 104.927 354.688 107.127 347.625 108.727C340.662 110.326 331.957 111.126 321.512 111.126C311.067 111.126 302.512 109.926 295.847 107.527C289.281 105.127 284.058 102.078 280.179 98.3788C276.399 94.5796 273.663 90.4305 271.972 85.9315C270.38 81.3325 269.385 76.8334 268.987 72.4344H284.805C285.401 80.5326 288.784 86.8313 294.951 91.3303C301.219 95.7294 310.221 97.9289 321.96 97.9289C334.096 97.9289 343.646 96.5292 350.61 93.7298C357.673 90.8304 361.254 86.2314 361.353 79.9328C361.453 73.6341 358.369 69.1351 352.102 66.4357C345.835 63.7363 336.086 61.9867 322.855 61.1868C314.101 60.8869 306.491 60.287 300.025 59.3872C293.658 58.4874 288.386 56.9877 284.208 54.8882C280.03 52.7886 276.946 49.9392 274.956 46.34C272.967 42.7408 271.972 38.0418 271.972 32.2431C271.972 27.944 272.967 23.8449 274.956 19.9457C276.946 16.0465 280.079 12.6473 284.357 9.7479C288.734 6.74855 294.305 4.39905 301.069 2.69942C307.834 0.899806 315.991 0 325.541 0C335.787 0 344.094 1.14975 350.46 3.44926C356.927 5.74876 362 8.69813 365.681 12.2974C369.461 15.8966 372.097 19.9457 373.589 24.4447C375.181 28.9438 376.176 33.3928 376.574 37.7919H360.757C360.359 33.0929 359.215 29.1937 357.324 26.0944C355.434 22.8951 352.898 20.3456 349.714 18.446C346.631 16.5464 343 15.1967 338.821 14.3969C334.643 13.5971 330.067 13.1972 325.093 13.1972C319.423 13.1972 314.25 13.5471 309.575 14.2469C304.999 14.9468 301.02 16.0465 297.637 17.5462C294.354 18.9459 291.768 20.7955 289.878 23.095C288.087 25.2946 287.192 27.994 287.192 31.1933C287.192 34.2926 287.888 36.8921 289.281 38.9916C290.773 40.9912 293.061 42.6408 296.145 43.9405C299.229 45.1403 303.158 46.0901 307.933 46.7899C312.808 47.3898 318.528 47.8897 325.093 48.2896C334.245 48.7895 342.055 49.6393 348.521 50.839C354.987 51.9388 360.309 53.6384 364.487 55.9379C368.665 58.2375 371.699 61.2368 373.589 64.936C375.579 68.6352 376.574 73.2842 376.574 78.883Z" fill="white"/>
<path d="M498.831 78.883C498.831 83.582 497.886 87.9311 495.996 91.9302C494.205 95.8293 491.171 99.2286 486.893 102.128C482.616 104.927 476.945 107.127 469.882 108.727C462.919 110.326 454.215 111.126 443.769 111.126C433.324 111.126 424.769 109.926 418.104 107.527C411.538 105.127 406.316 102.078 402.436 98.3788C398.656 94.5796 395.92 90.4305 394.229 85.9315C392.637 81.3325 391.642 76.8334 391.245 72.4344H407.062C407.658 80.5326 411.041 86.8313 417.208 91.3303C423.476 95.7294 432.478 97.9289 444.217 97.9289C456.353 97.9289 465.903 96.5292 472.867 93.7298C479.93 90.8304 483.511 86.2314 483.61 79.9328C483.71 73.6341 480.626 69.1351 474.359 66.4357C468.092 63.7363 458.343 61.9867 445.112 61.1868C436.358 60.8869 428.748 60.287 422.282 59.3872C415.915 58.4874 410.643 56.9877 406.465 54.8882C402.287 52.7886 399.203 49.9392 397.213 46.34C395.224 42.7408 394.229 38.0418 394.229 32.2431C394.229 27.944 395.224 23.8449 397.213 19.9457C399.203 16.0465 402.336 12.6473 406.614 9.7479C410.991 6.74855 416.562 4.39905 423.326 2.69942C430.091 0.899806 438.248 0 447.798 0C458.044 0 466.351 1.14975 472.718 3.44926C479.184 5.74876 484.257 8.69813 487.938 12.2974C491.718 15.8966 494.354 19.9457 495.846 24.4447C497.438 28.9438 498.433 33.3928 498.831 37.7919H483.014C482.616 33.0929 481.472 29.1937 479.582 26.0944C477.691 22.8951 475.155 20.3456 471.971 18.446C468.888 16.5464 465.257 15.1967 461.079 14.3969C456.9 13.5971 452.324 13.1972 447.35 13.1972C441.68 13.1972 436.507 13.5471 431.832 14.2469C427.256 14.9468 423.277 16.0465 419.894 17.5462C416.612 18.9459 414.025 20.7955 412.135 23.095C410.344 25.2946 409.449 27.994 409.449 31.1933C409.449 34.2926 410.145 36.8921 411.538 38.9916C413.03 40.9912 415.318 42.6408 418.402 43.9405C421.486 45.1403 425.415 46.0901 430.19 46.7899C435.065 47.3898 440.785 47.8897 447.35 48.2896C456.503 48.7895 464.312 49.6393 470.778 50.839C477.244 51.9388 482.566 53.6384 486.744 55.9379C490.922 58.2375 493.956 61.2368 495.846 64.936C497.836 68.6352 498.831 73.2842 498.831 78.883Z" fill="white"/>
<path d="M612.002 95.042V108.154H520.863V95.042H558.962V76.3831L508.611 2.92437H526.391L566.731 62.2278L607.37 2.92437H625L573.604 76.9792V95.042H612.002Z" fill="white"/>
<path fill-rule="evenodd" clip-rule="evenodd" d="M250.567 65.6968C252.967 60.2684 254.217 53.9517 254.317 46.7467C254.317 39.3442 253.117 32.8795 250.717 27.3523C248.417 21.8252 245.117 17.2851 240.817 13.7319C236.617 10.08 231.567 7.36582 225.667 5.58924C219.767 3.81266 213.217 2.92437 206.017 2.92437C198.917 2.92437 192.417 3.86201 186.517 5.73729C180.717 7.51387 175.717 10.2281 171.517 13.8799C167.417 17.4331 164.217 21.9732 161.917 27.5004C159.617 32.9288 158.467 39.2949 158.467 46.5986C158.567 53.9023 159.767 60.2684 162.067 65.6968C164.367 71.1253 167.567 75.6161 171.667 79.1692C175.867 82.7224 180.867 85.3379 186.667 87.0158C192.467 88.7924 198.967 89.6807 206.167 89.6807C213.267 89.6807 219.717 88.7924 225.517 87.0158C231.417 85.2392 236.467 82.5743 240.667 79.0212C244.967 75.468 248.267 71.0266 250.567 65.6968ZM172.819 43.7348H181.83C182.348 33.4394 185.963 23.9002 191.739 17.1203C187.692 18.3787 184.252 20.2595 181.417 22.7628C176.273 27.2963 173.407 34.287 172.819 43.7348ZM201.781 15.3451C194.022 20.4532 188.041 31.2855 187.308 43.735H203.653V15.2502C203.02 15.2722 202.395 15.3038 201.781 15.3451ZM209.131 15.2957V43.735H225.475C224.747 31.3594 218.833 20.5824 211.141 15.4365C210.481 15.3782 209.811 15.3312 209.131 15.2957ZM221.397 17.5405C226.967 24.2912 230.446 33.6497 230.954 43.7348H239.96C239.343 34.287 236.279 27.2963 230.767 22.7628C228.098 20.5243 224.975 18.7835 221.397 17.5405ZM221.417 75.0416C225.069 73.8181 228.235 72.085 230.917 69.8422C236.337 65.3087 239.352 58.3181 239.961 48.8703H230.954H230.954C230.447 58.9434 226.975 68.2924 221.417 75.0416ZM211.341 77.0331C218.935 71.8357 224.753 61.1382 225.475 48.8703H209.13V77.1775C209.88 77.1428 210.617 77.0947 211.341 77.0331ZM203.652 77.1966V48.8703H187.307C188.03 61.1701 193.877 71.8909 201.501 77.0737C202.205 77.1272 202.922 77.1682 203.652 77.1966ZM172.822 48.8703C173.42 58.231 176.335 65.2217 181.567 69.8422C184.337 72.199 187.654 73.993 191.519 75.2243C185.872 68.4618 182.342 59.0352 181.83 48.8703H172.822Z" fill="white"/>
</svg>
