<svg width="624" height="301" viewBox="0 0 624 301" fill="none" xmlns="http://www.w3.org/2000/svg">
<path d="M143.655 56.5179H130V51.5868H174V56.5179H160.345L168.273 64.5137L164.816 68L154.444 57.5386V63.9146H149.556V57.5386L139.184 68L135.727 64.5137L143.655 56.5179ZM134.889 22H169.111C169.759 22 170.381 22.2598 170.84 22.7221C171.298 23.1845 171.556 23.8117 171.556 24.4656V49.1212H132.444V24.4656C132.444 23.8117 132.702 23.1845 133.16 22.7221C133.619 22.2598 134.241 22 134.889 22ZM137.333 26.9311V44.1901H166.667V26.9311H137.333Z" fill="white"/>
<path d="M157 35.5L149.5 39.3971L149.5 31.6029L157 35.5Z" fill="white"/>
<path d="M0.5 25.6C0.5 21.1113 0.500389 17.7749 0.716326 15.1319C0.931787 12.4948 1.35935 10.5922 2.1894 8.96315C3.67544 6.04664 6.04664 3.67544 8.96315 2.1894C10.5922 1.35935 12.4948 0.931787 15.1319 0.716326C17.7749 0.500389 21.1113 0.5 25.6 0.5H278.4C282.889 0.5 286.225 0.500389 288.868 0.716326C291.505 0.931787 293.408 1.35935 295.037 2.1894C297.953 3.67544 300.325 6.04664 301.811 8.96315C302.641 10.5922 303.068 12.4948 303.284 15.1319C303.5 17.7749 303.5 21.1113 303.5 25.6V87.5H0.5V25.6Z" stroke="white"/>
<path d="M37.7779 118.504V118.696L32.9779 127.16C32.5725 127.864 32.1565 128.349 31.7299 128.616C31.3032 128.872 30.7059 129 29.9379 129H28.2739V127.896H29.9379C30.4392 127.896 30.8125 127.827 31.0579 127.688C31.3139 127.549 31.5592 127.277 31.7939 126.872L26.6899 118.696V118.504H27.9699L32.4819 125.736L36.5139 118.504H37.7779ZM46.6576 121.112V129H45.4736V126.136C44.247 126.371 43.1003 126.488 42.0336 126.488C40.8176 126.488 39.895 126.243 39.2656 125.752C38.647 125.261 38.3376 124.531 38.3376 123.56V121.112H39.5216V123.448C39.5216 124.771 40.3963 125.432 42.1456 125.432C43.1056 125.432 44.215 125.315 45.4736 125.08V121.112H46.6576ZM50.6858 121.112V127.544L56.9738 121.112H58.0618V129H56.9097V122.568L50.6218 129H49.5338V121.112H50.6858ZM64.988 129.176C64.0493 129.176 63.228 129.016 62.524 128.696C61.82 128.376 61.276 127.917 60.892 127.32C60.508 126.723 60.316 126.029 60.316 125.24V124.92C60.316 124.12 60.5027 123.421 60.876 122.824C61.26 122.216 61.804 121.752 62.508 121.432C63.212 121.101 64.0387 120.936 64.988 120.936C65.8413 120.936 66.604 121.08 67.276 121.368C67.9587 121.645 68.492 122.04 68.876 122.552C69.26 123.053 69.452 123.619 69.452 124.248V124.328H68.236V124.248C68.236 123.821 68.092 123.443 67.804 123.112C67.5267 122.771 67.1427 122.504 66.652 122.312C66.1613 122.12 65.6067 122.024 64.988 122.024C63.9107 122.024 63.0627 122.285 62.444 122.808C61.836 123.32 61.532 124.029 61.532 124.936V125.224C61.532 126.109 61.836 126.808 62.444 127.32C63.0627 127.832 63.9107 128.088 64.988 128.088C65.6067 128.088 66.1613 127.992 66.652 127.8C67.1533 127.608 67.5427 127.347 67.82 127.016C68.0973 126.685 68.236 126.307 68.236 125.88V125.8H69.452V125.88C69.452 126.52 69.26 127.091 68.876 127.592C68.5027 128.093 67.9747 128.483 67.292 128.76C66.62 129.037 65.852 129.176 64.988 129.176ZM77.5628 123.688C78.5228 123.688 79.2694 123.912 79.8028 124.36C80.3361 124.808 80.6028 125.437 80.6028 126.248V126.456C80.6028 127.245 80.3308 127.864 79.7868 128.312C79.2534 128.76 78.5121 128.984 77.5628 128.984H71.6588V121.112H72.8428V123.688H77.5628ZM79.3868 126.248C79.3868 125.757 79.2214 125.384 78.8908 125.128C78.5708 124.872 78.1014 124.744 77.4828 124.744H72.8428V127.944H77.4828C78.1014 127.944 78.5708 127.816 78.8908 127.56C79.2214 127.304 79.3868 126.936 79.3868 126.456V126.248ZM90.5146 121.112V124.52H96.7546V121.112H97.9386V129H96.7546V125.576H90.5146V129H89.3306V121.112H90.5146ZM110.564 127.96V129H109.588C109.066 129 108.634 128.888 108.292 128.664C107.951 128.44 107.727 128.125 107.62 127.72C106.724 128.691 105.444 129.176 103.78 129.176C102.65 129.176 101.786 128.989 101.188 128.616C100.591 128.232 100.292 127.683 100.292 126.968C100.292 125.688 101.252 124.947 103.172 124.744L107.556 124.28V124.264C107.556 123.539 107.3 122.989 106.788 122.616C106.276 122.243 105.524 122.056 104.532 122.056C103.626 122.056 102.895 122.227 102.34 122.568C101.786 122.909 101.508 123.357 101.508 123.912V124.008H100.34V123.912C100.34 123.336 100.516 122.824 100.868 122.376C101.22 121.917 101.711 121.565 102.34 121.32C102.98 121.064 103.716 120.936 104.548 120.936C105.871 120.936 106.9 121.229 107.636 121.816C108.372 122.403 108.74 123.224 108.74 124.28V126.952C108.74 127.272 108.836 127.523 109.028 127.704C109.22 127.875 109.498 127.96 109.86 127.96H110.564ZM103.764 128.136C104.65 128.136 105.423 127.992 106.084 127.704C106.746 127.405 107.236 126.989 107.556 126.456V125.256L103.412 125.688C102.751 125.763 102.26 125.907 101.94 126.12C101.631 126.323 101.476 126.605 101.476 126.968C101.476 127.747 102.239 128.136 103.764 128.136ZM122.52 129.176C121.57 129.176 120.738 129.016 120.024 128.696C119.32 128.376 118.776 127.917 118.392 127.32C118.018 126.723 117.832 126.024 117.832 125.224V124.92C117.832 124.109 118.018 123.405 118.392 122.808C118.776 122.2 119.32 121.736 120.024 121.416C120.728 121.096 121.56 120.936 122.52 120.936C123.458 120.936 124.274 121.101 124.968 121.432C125.672 121.752 126.21 122.211 126.584 122.808C126.968 123.405 127.16 124.109 127.16 124.92V125.224C127.16 126.024 126.968 126.723 126.584 127.32C126.21 127.917 125.672 128.376 124.968 128.696C124.274 129.016 123.458 129.176 122.52 129.176ZM122.504 128.088C123.57 128.088 124.408 127.832 125.016 127.32C125.634 126.808 125.944 126.109 125.944 125.224V124.92C125.944 124.024 125.634 123.32 125.016 122.808C124.408 122.285 123.57 122.024 122.504 122.024C121.416 122.024 120.568 122.28 119.96 122.792C119.352 123.304 119.048 124.013 119.048 124.92V125.224C119.048 126.109 119.357 126.808 119.976 127.32C120.594 127.832 121.437 128.088 122.504 128.088ZM133.457 129.176C132.518 129.176 131.697 129.016 130.993 128.696C130.289 128.376 129.745 127.917 129.361 127.32C128.977 126.723 128.785 126.029 128.785 125.24V124.92C128.785 124.12 128.971 123.421 129.345 122.824C129.729 122.216 130.273 121.752 130.977 121.432C131.681 121.101 132.507 120.936 133.457 120.936C134.31 120.936 135.073 121.08 135.745 121.368C136.427 121.645 136.961 122.04 137.345 122.552C137.729 123.053 137.921 123.619 137.921 124.248V124.328H136.705V124.248C136.705 123.821 136.561 123.443 136.273 123.112C135.995 122.771 135.611 122.504 135.121 122.312C134.63 122.12 134.075 122.024 133.457 122.024C132.379 122.024 131.531 122.285 130.913 122.808C130.305 123.32 130.001 124.029 130.001 124.936V125.224C130.001 126.109 130.305 126.808 130.913 127.32C131.531 127.832 132.379 128.088 133.457 128.088C134.075 128.088 134.63 127.992 135.121 127.8C135.622 127.608 136.011 127.347 136.289 127.016C136.566 126.685 136.705 126.307 136.705 125.88V125.8H137.921V125.88C137.921 126.52 137.729 127.091 137.345 127.592C136.971 128.093 136.443 128.483 135.761 128.76C135.089 129.037 134.321 129.176 133.457 129.176ZM141.312 121.112V124.52H147.552V121.112H148.736V129H147.552V125.576H141.312V129H140.128V121.112H141.312ZM155.676 129.176C154.727 129.176 153.895 129.016 153.18 128.696C152.476 128.376 151.932 127.917 151.548 127.32C151.175 126.723 150.988 126.024 150.988 125.224V124.92C150.988 124.109 151.175 123.405 151.548 122.808C151.932 122.2 152.476 121.736 153.18 121.416C153.884 121.096 154.716 120.936 155.676 120.936C156.615 120.936 157.431 121.101 158.124 121.432C158.828 121.752 159.367 122.211 159.74 122.808C160.124 123.405 160.316 124.109 160.316 124.92V125.224C160.316 126.024 160.124 126.723 159.74 127.32C159.367 127.917 158.828 128.376 158.124 128.696C157.431 129.016 156.615 129.176 155.676 129.176ZM155.66 128.088C156.727 128.088 157.564 127.832 158.172 127.32C158.791 126.808 159.1 126.109 159.1 125.224V124.92C159.1 124.024 158.791 123.32 158.172 122.808C157.564 122.285 156.727 122.024 155.66 122.024C154.572 122.024 153.724 122.28 153.116 122.792C152.508 123.304 152.204 124.013 152.204 124.92V125.224C152.204 126.109 152.513 126.808 153.132 127.32C153.751 127.832 154.593 128.088 155.66 128.088ZM170.053 125C171.024 125.299 171.509 125.869 171.509 126.712V126.872C171.509 127.555 171.253 128.083 170.741 128.456C170.229 128.819 169.498 129 168.549 129H162.565V121.112H168.341C169.29 121.112 170.021 121.293 170.533 121.656C171.056 122.019 171.317 122.525 171.317 123.176V123.336C171.317 123.72 171.205 124.056 170.981 124.344C170.768 124.621 170.458 124.84 170.053 125ZM163.749 122.04V124.552H168.293C168.869 124.552 169.312 124.451 169.621 124.248C169.941 124.035 170.101 123.736 170.101 123.352V123.192C170.101 122.819 169.946 122.536 169.637 122.344C169.328 122.141 168.88 122.04 168.293 122.04H163.749ZM170.293 126.696C170.293 126.312 170.138 126.019 169.829 125.816C169.52 125.603 169.082 125.496 168.517 125.496H163.749V128.072H168.517C169.093 128.072 169.53 127.971 169.829 127.768C170.138 127.555 170.293 127.251 170.293 126.856V126.696ZM182.404 125.448H174.532C174.564 126.269 174.879 126.915 175.476 127.384C176.084 127.853 176.9 128.088 177.924 128.088C178.863 128.088 179.626 127.917 180.212 127.576C180.799 127.235 181.108 126.781 181.14 126.216H182.404C182.34 127.133 181.908 127.859 181.108 128.392C180.308 128.915 179.247 129.176 177.924 129.176C176.986 129.176 176.17 129.016 175.476 128.696C174.783 128.376 174.244 127.923 173.86 127.336C173.487 126.739 173.3 126.04 173.3 125.24V124.888C173.3 124.088 173.487 123.389 173.86 122.792C174.244 122.195 174.783 121.736 175.476 121.416C176.17 121.096 176.986 120.936 177.924 120.936C178.831 120.936 179.62 121.096 180.292 121.416C180.975 121.725 181.498 122.173 181.86 122.76C182.223 123.347 182.404 124.04 182.404 124.84V125.448ZM177.908 122.024C176.927 122.024 176.138 122.243 175.54 122.68C174.954 123.107 174.623 123.699 174.548 124.456H181.156C181.092 123.699 180.772 123.107 180.196 122.68C179.62 122.243 178.858 122.024 177.908 122.024ZM199.577 129H198.393V122.168H193.033L192.953 125.368C192.921 126.627 192.692 127.549 192.265 128.136C191.849 128.712 191.204 129 190.329 129H189.673V127.944H190.073C190.67 127.944 191.102 127.741 191.369 127.336C191.646 126.931 191.796 126.253 191.817 125.304L191.913 121.112H199.577V129ZM210.504 120.936C211.432 120.936 212.237 121.101 212.92 121.432C213.602 121.752 214.125 122.211 214.488 122.808C214.861 123.405 215.048 124.109 215.048 124.92V125.224C215.048 126.024 214.861 126.723 214.488 127.32C214.125 127.917 213.597 128.376 212.904 128.696C212.221 129.016 211.421 129.176 210.504 129.176C209.181 129.176 208.12 128.856 207.32 128.216C206.52 127.576 206.077 126.701 205.992 125.592H203.64V129H202.456V121.112H203.64V124.52H205.992C206.077 123.411 206.52 122.536 207.32 121.896C208.12 121.256 209.181 120.936 210.504 120.936ZM213.832 124.952C213.832 124.045 213.533 123.331 212.936 122.808C212.338 122.285 211.528 122.024 210.504 122.024C209.458 122.024 208.637 122.285 208.04 122.808C207.453 123.32 207.16 124.035 207.16 124.952V125.224C207.16 126.109 207.458 126.808 208.056 127.32C208.653 127.832 209.469 128.088 210.504 128.088C211.528 128.088 212.338 127.832 212.936 127.32C213.533 126.808 213.832 126.109 213.832 125.224V124.952ZM221.907 121.448C222.782 121.448 223.55 121.603 224.211 121.912C224.883 122.211 225.401 122.643 225.763 123.208C226.126 123.763 226.307 124.408 226.307 125.144V125.512C226.307 126.248 226.115 126.893 225.731 127.448C225.358 128.003 224.819 128.429 224.115 128.728C223.422 129.027 222.617 129.176 221.699 129.176C220.163 129.176 218.985 128.776 218.163 127.976C217.342 127.165 216.931 126.003 216.931 124.488V123.448C216.931 121.933 217.315 120.787 218.083 120.008C218.862 119.219 220.057 118.765 221.667 118.648L223.923 118.472C224.158 118.461 224.323 118.419 224.419 118.344C224.526 118.269 224.579 118.157 224.579 118.008V117.864H225.843V118.056C225.843 118.525 225.71 118.883 225.443 119.128C225.177 119.363 224.766 119.501 224.211 119.544L221.683 119.736C220.457 119.832 219.55 120.141 218.963 120.664C218.387 121.176 218.089 121.933 218.067 122.936C218.494 122.456 219.038 122.088 219.699 121.832C220.371 121.576 221.107 121.448 221.907 121.448ZM225.091 125.16C225.091 124.349 224.782 123.709 224.163 123.24C223.555 122.76 222.723 122.52 221.667 122.52C220.91 122.52 220.227 122.659 219.619 122.936C219.011 123.203 218.51 123.597 218.115 124.12V124.776C218.115 125.864 218.414 126.691 219.011 127.256C219.619 127.821 220.505 128.104 221.667 128.104C222.713 128.104 223.545 127.869 224.163 127.4C224.782 126.931 225.091 126.301 225.091 125.512V125.16ZM229.717 121.112V127.544L236.005 121.112H237.093V129H235.941V122.568L229.653 129H228.565V121.112H229.717ZM251.699 121.112V129H250.547V122.36L250.243 122.904L246.371 129H245.315L241.411 122.888L241.123 122.376V129H239.971V121.112H241.635L245.843 127.784L250.035 121.112H251.699ZM260.421 123.688C261.402 123.688 262.154 123.923 262.677 124.392C263.21 124.851 263.477 125.475 263.477 126.264V126.472C263.477 127.24 263.21 127.853 262.677 128.312C262.154 128.771 261.402 129 260.421 129H254.773V121.112H255.957V123.688H260.421ZM265.941 121.112V129H264.757V121.112H265.941ZM262.261 126.264C262.261 125.784 262.101 125.411 261.781 125.144C261.471 124.877 260.991 124.744 260.341 124.744H255.957V127.96H260.341C260.991 127.96 261.471 127.827 261.781 127.56C262.101 127.293 262.261 126.931 262.261 126.472V126.264ZM277.434 128.824V129H276.042L272.826 125.72L269.61 129H268.218V128.824L271.994 125.016L268.282 121.288V121.112H269.658L272.826 124.312L276.026 121.112H277.354V121.288L273.642 125.016L277.434 128.824ZM61.7581 140.112C63.3155 140.112 64.5208 140.448 65.3741 141.12C66.2381 141.792 66.6701 142.736 66.6701 143.952V144.176C66.6701 145.381 66.2381 146.32 65.3741 146.992C64.5101 147.664 63.3048 148 61.7581 148H60.4141V150.72H59.2301V148H57.8861C56.3395 148 55.1341 147.664 54.2701 146.992C53.4061 146.32 52.9741 145.381 52.9741 144.176V143.952C52.9741 142.736 53.4008 141.792 54.2541 141.12C55.1181 140.448 56.3288 140.112 57.8861 140.112H59.2301V136.864H60.4141V140.112H61.7581ZM59.2301 146.96V141.168H57.8221C56.6595 141.168 55.7635 141.413 55.1341 141.904C54.5048 142.384 54.1901 143.072 54.1901 143.968V144.16C54.1901 145.045 54.5048 145.733 55.1341 146.224C55.7741 146.715 56.6701 146.96 57.8221 146.96H59.2301ZM65.4541 143.968C65.4541 143.072 65.1395 142.384 64.5101 141.904C63.8808 141.413 62.9848 141.168 61.8221 141.168H60.4141V146.96H61.8221C62.9741 146.96 63.8648 146.715 64.4941 146.224C65.1341 145.733 65.4541 145.045 65.4541 144.16V143.968ZM70.1545 140.112V146.544L76.4425 140.112H77.5305V148H76.3785V141.568L70.0905 148H69.0025V140.112H70.1545ZM88.9208 148H87.7368V141.168H82.3768L82.2968 144.368C82.2648 145.627 82.0354 146.549 81.6088 147.136C81.1928 147.712 80.5474 148 79.6728 148H79.0168V146.944H79.4168C80.0141 146.944 80.4461 146.741 80.7128 146.336C80.9901 145.931 81.1394 145.253 81.1608 144.304L81.2568 140.112H88.9208V148ZM97.7034 142.688C98.6634 142.688 99.41 142.912 99.9434 143.36C100.477 143.808 100.743 144.437 100.743 145.248V145.456C100.743 146.245 100.471 146.864 99.9274 147.312C99.394 147.76 98.6527 147.984 97.7034 147.984H91.7994V140.112H92.9834V142.688H97.7034ZM99.5274 145.248C99.5274 144.757 99.362 144.384 99.0314 144.128C98.7114 143.872 98.242 143.744 97.6234 143.744H92.9834V146.944H97.6234C98.242 146.944 98.7114 146.816 99.0314 146.56C99.362 146.304 99.5274 145.936 99.5274 145.456V145.248ZM114.793 140.112V148H113.641V141.36L113.337 141.904L109.465 148H108.409L104.505 141.888L104.217 141.376V148H103.065V140.112H104.729L108.937 146.784L113.129 140.112H114.793ZM121.738 148.176C120.789 148.176 119.957 148.016 119.242 147.696C118.538 147.376 117.994 146.917 117.61 146.32C117.237 145.723 117.05 145.024 117.05 144.224V143.92C117.05 143.109 117.237 142.405 117.61 141.808C117.994 141.2 118.538 140.736 119.242 140.416C119.946 140.096 120.778 139.936 121.738 139.936C122.677 139.936 123.493 140.101 124.186 140.432C124.89 140.752 125.429 141.211 125.802 141.808C126.186 142.405 126.378 143.109 126.378 143.92V144.224C126.378 145.024 126.186 145.723 125.802 146.32C125.429 146.917 124.89 147.376 124.186 147.696C123.493 148.016 122.677 148.176 121.738 148.176ZM121.722 147.088C122.789 147.088 123.626 146.832 124.234 146.32C124.853 145.808 125.162 145.109 125.162 144.224V143.92C125.162 143.024 124.853 142.32 124.234 141.808C123.626 141.285 122.789 141.024 121.722 141.024C120.634 141.024 119.786 141.28 119.178 141.792C118.57 142.304 118.266 143.013 118.266 143.92V144.224C118.266 145.109 118.576 145.808 119.194 146.32C119.813 146.832 120.656 147.088 121.722 147.088ZM136.116 144C137.086 144.299 137.572 144.869 137.572 145.712V145.872C137.572 146.555 137.316 147.083 136.804 147.456C136.292 147.819 135.561 148 134.612 148H128.628V140.112H134.404C135.353 140.112 136.084 140.293 136.595 140.656C137.118 141.019 137.38 141.525 137.38 142.176V142.336C137.38 142.72 137.268 143.056 137.044 143.344C136.83 143.621 136.521 143.84 136.116 144ZM129.812 141.04V143.552H134.356C134.932 143.552 135.374 143.451 135.684 143.248C136.004 143.035 136.164 142.736 136.164 142.352V142.192C136.164 141.819 136.009 141.536 135.7 141.344C135.39 141.141 134.942 141.04 134.356 141.04H129.812ZM136.356 145.696C136.356 145.312 136.201 145.019 135.892 144.816C135.582 144.603 135.145 144.496 134.58 144.496H129.812V147.072H134.58C135.156 147.072 135.593 146.971 135.892 146.768C136.201 146.555 136.356 146.251 136.356 145.856V145.696ZM147.545 140.112V146.544L153.833 140.112H154.921V148H153.769V141.568L147.481 148H146.393V140.112H147.545ZM168.254 148.176C167.315 148.176 166.494 148.016 165.79 147.696C165.086 147.376 164.542 146.917 164.158 146.32C163.774 145.723 163.582 145.029 163.582 144.24V143.92C163.582 143.12 163.768 142.421 164.142 141.824C164.526 141.216 165.07 140.752 165.774 140.432C166.478 140.101 167.304 139.936 168.254 139.936C169.107 139.936 169.87 140.08 170.542 140.368C171.224 140.645 171.758 141.04 172.142 141.552C172.526 142.053 172.718 142.619 172.718 143.248V143.328H171.502V143.248C171.502 142.821 171.358 142.443 171.07 142.112C170.792 141.771 170.408 141.504 169.918 141.312C169.427 141.12 168.872 141.024 168.254 141.024C167.176 141.024 166.328 141.285 165.71 141.808C165.102 142.32 164.798 143.029 164.798 143.936V144.224C164.798 145.109 165.102 145.808 165.71 146.32C166.328 146.832 167.176 147.088 168.254 147.088C168.872 147.088 169.427 146.992 169.918 146.8C170.419 146.608 170.808 146.347 171.086 146.016C171.363 145.685 171.502 145.307 171.502 144.88V144.8H172.718V144.88C172.718 145.52 172.526 146.091 172.142 146.592C171.768 147.093 171.24 147.483 170.558 147.76C169.886 148.037 169.118 148.176 168.254 148.176ZM183.404 144.448H175.532C175.564 145.269 175.879 145.915 176.476 146.384C177.084 146.853 177.9 147.088 178.924 147.088C179.863 147.088 180.626 146.917 181.212 146.576C181.799 146.235 182.108 145.781 182.14 145.216H183.404C183.34 146.133 182.908 146.859 182.108 147.392C181.308 147.915 180.247 148.176 178.924 148.176C177.986 148.176 177.17 148.016 176.476 147.696C175.783 147.376 175.244 146.923 174.86 146.336C174.487 145.739 174.3 145.04 174.3 144.24V143.888C174.3 143.088 174.487 142.389 174.86 141.792C175.244 141.195 175.783 140.736 176.476 140.416C177.17 140.096 177.986 139.936 178.924 139.936C179.831 139.936 180.62 140.096 181.292 140.416C181.975 140.725 182.498 141.173 182.86 141.76C183.223 142.347 183.404 143.04 183.404 143.84V144.448ZM178.908 141.024C177.927 141.024 177.138 141.243 176.54 141.68C175.954 142.107 175.623 142.699 175.548 143.456H182.156C182.092 142.699 181.772 142.107 181.196 141.68C180.62 141.243 179.858 141.024 178.908 141.024ZM190.107 139.936C191.045 139.936 191.867 140.101 192.571 140.432C193.275 140.752 193.813 141.211 194.187 141.808C194.571 142.405 194.763 143.104 194.763 143.904V144.192C194.763 144.992 194.571 145.696 194.187 146.304C193.803 146.901 193.259 147.365 192.555 147.696C191.861 148.016 191.045 148.176 190.107 148.176C189.467 148.176 188.864 148.069 188.299 147.856C187.744 147.643 187.259 147.339 186.843 146.944V150.72H185.659V140.112H186.763L186.811 141.216C187.216 140.811 187.701 140.496 188.267 140.272C188.843 140.048 189.456 139.936 190.107 139.936ZM193.547 143.904C193.547 143.008 193.237 142.304 192.619 141.792C192.011 141.28 191.168 141.024 190.091 141.024C189.408 141.024 188.773 141.152 188.187 141.408C187.611 141.664 187.163 142.011 186.843 142.448V145.648C187.163 146.085 187.611 146.437 188.187 146.704C188.773 146.96 189.408 147.088 190.091 147.088C191.168 147.088 192.011 146.832 192.619 146.32C193.237 145.808 193.547 145.099 193.547 144.192V143.904ZM198.17 140.112V146.544L204.458 140.112H205.546V148H204.394V141.568L198.106 148H197.018V140.112H198.17ZM218.174 146.96V148H217.198C216.675 148 216.243 147.888 215.902 147.664C215.56 147.44 215.336 147.125 215.23 146.72C214.334 147.691 213.054 148.176 211.39 148.176C210.259 148.176 209.395 147.989 208.798 147.616C208.2 147.232 207.902 146.683 207.902 145.968C207.902 144.688 208.862 143.947 210.782 143.744L215.166 143.28V143.264C215.166 142.539 214.91 141.989 214.398 141.616C213.886 141.243 213.134 141.056 212.142 141.056C211.235 141.056 210.504 141.227 209.95 141.568C209.395 141.909 209.118 142.357 209.118 142.912V143.008H207.95V142.912C207.95 142.336 208.126 141.824 208.478 141.376C208.83 140.917 209.32 140.565 209.95 140.32C210.59 140.064 211.326 139.936 212.158 139.936C213.48 139.936 214.51 140.229 215.246 140.816C215.982 141.403 216.35 142.224 216.35 143.28V145.952C216.35 146.272 216.446 146.523 216.638 146.704C216.83 146.875 217.107 146.96 217.47 146.96H218.174ZM211.374 147.136C212.259 147.136 213.032 146.992 213.694 146.704C214.355 146.405 214.846 145.989 215.166 145.456V144.256L211.022 144.688C210.36 144.763 209.87 144.907 209.55 145.12C209.24 145.323 209.086 145.605 209.086 145.968C209.086 146.747 209.848 147.136 211.374 147.136ZM228.171 148H226.987V141.168H221.627L221.547 144.368C221.515 145.627 221.285 146.549 220.859 147.136C220.443 147.712 219.797 148 218.923 148H218.267V146.944H218.667C219.264 146.944 219.696 146.741 219.963 146.336C220.24 145.931 220.389 145.253 220.411 144.304L220.507 140.112H228.171V148ZM235.113 148.176C234.164 148.176 233.332 148.016 232.617 147.696C231.913 147.376 231.369 146.917 230.985 146.32C230.612 145.723 230.425 145.024 230.425 144.224V143.92C230.425 143.109 230.612 142.405 230.985 141.808C231.369 141.2 231.913 140.736 232.617 140.416C233.321 140.096 234.153 139.936 235.113 139.936C236.052 139.936 236.868 140.101 237.561 140.432C238.265 140.752 238.804 141.211 239.177 141.808C239.561 142.405 239.753 143.109 239.753 143.92V144.224C239.753 145.024 239.561 145.723 239.177 146.32C238.804 146.917 238.265 147.376 237.561 147.696C236.868 148.016 236.052 148.176 235.113 148.176ZM235.097 147.088C236.164 147.088 237.001 146.832 237.609 146.32C238.228 145.808 238.537 145.109 238.537 144.224V143.92C238.537 143.024 238.228 142.32 237.609 141.808C237.001 141.285 236.164 141.024 235.097 141.024C234.009 141.024 233.161 141.28 232.553 141.792C231.945 142.304 231.641 143.013 231.641 143.92V144.224C231.641 145.109 231.951 145.808 232.569 146.32C233.188 146.832 234.031 147.088 235.097 147.088ZM249.491 144C250.461 144.299 250.947 144.869 250.947 145.712V145.872C250.947 146.555 250.691 147.083 250.179 147.456C249.667 147.819 248.936 148 247.987 148H242.003V140.112H247.779C248.728 140.112 249.459 140.293 249.97 140.656C250.493 141.019 250.755 141.525 250.755 142.176V142.336C250.755 142.72 250.643 143.056 250.419 143.344C250.205 143.621 249.896 143.84 249.491 144ZM243.187 141.04V143.552H247.731C248.307 143.552 248.749 143.451 249.059 143.248C249.379 143.035 249.539 142.736 249.539 142.352V142.192C249.539 141.819 249.384 141.536 249.075 141.344C248.765 141.141 248.317 141.04 247.731 141.04H243.187ZM249.731 145.696C249.731 145.312 249.576 145.019 249.267 144.816C248.957 144.603 248.52 144.496 247.955 144.496H243.187V147.072H247.955C248.531 147.072 248.968 146.971 249.267 146.768C249.576 146.555 249.731 146.251 249.731 145.856V145.696Z" fill="white"/>
<path d="M0.5 16C0.5 7.43959 7.43959 0.5 16 0.5H288C296.56 0.5 303.5 7.43959 303.5 16V181C303.5 189.56 296.56 196.5 288 196.5H16C7.43958 196.5 0.5 189.56 0.5 181V16Z" stroke="white"/>
<path d="M450.804 62.1459V67.5201H460.1V62.1459C460.1 61.3315 459.773 60.5504 459.192 59.9742C458.611 59.3984 457.823 59.0749 457.001 59.0749H453.903C453.081 59.0749 452.293 59.3984 451.711 59.9742C451.13 60.5504 450.804 61.3315 450.804 62.1459Z" fill="white"/>
<path d="M458.164 56.3881C458.164 57.8722 456.95 59.0752 455.452 59.0752C453.955 59.0752 452.741 57.8722 452.741 56.3881C452.741 54.904 453.955 53.701 455.452 53.701C456.95 53.701 458.164 54.904 458.164 56.3881Z" fill="white"/>
<path d="M467.072 62.1459V67.5201H476.368V62.1459C476.368 61.3315 476.042 60.5504 475.461 59.9742C474.879 59.3984 474.091 59.0749 473.269 59.0749H470.171C469.349 59.0749 468.561 59.3984 467.979 59.9742C467.398 60.5504 467.072 61.3315 467.072 62.1459Z" fill="white"/>
<path d="M474.431 56.3881C474.431 57.8722 473.217 59.0752 471.72 59.0752C470.222 59.0752 469.008 57.8722 469.008 56.3881C469.008 54.904 470.222 53.701 471.72 53.701C473.217 53.701 474.431 54.904 474.431 56.3881Z" fill="white"/>
<path d="M483.34 62.1459V67.5201H492.636V62.1459C492.636 61.3315 492.309 60.5504 491.728 59.9742C491.147 59.3984 490.359 59.0749 489.537 59.0749H486.439C485.617 59.0749 484.829 59.3984 484.247 59.9742C483.666 60.5504 483.34 61.3315 483.34 62.1459Z" fill="white"/>
<path d="M490.7 56.3881C490.7 57.8722 489.486 59.0752 487.988 59.0752C486.491 59.0752 485.277 57.8722 485.277 56.3881C485.277 54.904 486.491 53.701 487.988 53.701C489.486 53.701 490.7 54.904 490.7 56.3881Z" fill="white"/>
<path d="M478.692 29.1329V22.991C478.692 22.1766 478.366 21.3955 477.785 20.8194C477.203 20.2436 476.415 19.92 475.593 19.92H467.847C467.025 19.92 466.237 20.2436 465.656 20.8194C465.075 21.3955 464.748 22.1766 464.748 22.991V29.1329C464.748 29.9473 465.075 30.7284 465.656 31.3045C466.237 31.8803 467.025 32.2039 467.847 32.2039H475.593C476.415 32.2039 477.203 31.8803 477.785 31.3045C478.366 30.7284 478.692 29.9472 478.692 29.1329ZM473.635 29.1329L471.72 28.0838L469.805 29.1329L470.171 26.9106L468.621 25.3367L470.762 25.0124L471.72 22.991L472.678 25.0128L474.819 25.337L473.269 26.9109L473.635 29.1329Z" fill="white"/>
<path d="M451.579 42.1846H459.325C460.147 42.1846 460.935 41.8611 461.517 41.2853C462.098 40.7091 462.424 39.928 462.424 39.1137V32.9717C462.424 32.1574 462.098 31.3762 461.517 30.8001C460.935 30.2243 460.147 29.9008 459.325 29.9008H451.579C450.757 29.9008 449.969 30.2243 449.387 30.8001C448.806 31.3763 448.48 32.1574 448.48 32.9717V39.1137C448.48 39.928 448.806 40.7092 449.387 41.2853C449.969 41.8611 450.757 42.1846 451.579 42.1846ZM455.452 34.0832C456.329 32.424 459.325 32.6215 459.325 34.6793C459.325 36.6497 456.276 38.6201 455.452 39.1137C454.628 38.6201 451.579 36.6497 451.579 34.6793C451.579 32.6218 454.575 32.4244 455.452 34.0832Z" fill="white"/>
<path d="M494.96 39.1137V32.9717C494.96 32.1574 494.634 31.3762 494.053 30.8001C493.471 30.2243 492.683 29.9008 491.861 29.9008H484.115C483.293 29.9008 482.505 30.2243 481.923 30.8001C481.342 31.3763 481.016 32.1574 481.016 32.9717V39.1137C481.016 39.928 481.342 40.7092 481.923 41.2853C482.505 41.8611 483.293 42.1846 484.115 42.1846H491.861C492.683 42.1846 493.471 41.8611 494.053 41.2853C494.634 40.7091 494.96 39.928 494.96 39.1137ZM487.761 38.8888C487.616 39.0328 487.419 39.1137 487.213 39.1137C487.008 39.1137 486.811 39.0328 486.666 38.8888L484.342 36.5856L485.437 35.4998L487.213 37.2604L491.313 33.1969L492.409 34.2824L487.761 38.8888Z" fill="white"/>
<path d="M470.945 37.578H472.495V39.1135H470.945V37.578Z" fill="white"/>
<path d="M470.945 34.5071H472.495V36.0426H470.945V34.5071Z" fill="white"/>
<path d="M470.945 40.649H472.495V42.1845H470.945V40.649Z" fill="white"/>
<path d="M470.945 43.72H472.495V45.2555H470.945V43.72Z" fill="white"/>
<path d="M470.945 46.791H472.495V48.3265H470.945V46.791Z" fill="white"/>
<path d="M487.213 44.4878H488.763V46.0233H487.213V44.4878Z" fill="white"/>
<path d="M487.213 47.5588H488.763V49.0943H487.213V47.5588Z" fill="white"/>
<path d="M454.677 44.4878H456.227V46.0233H454.677V44.4878Z" fill="white"/>
<path d="M454.677 47.5588H456.227V49.0943H454.677V47.5588Z" fill="white"/>
<path d="M470.945 49.8619H472.495V51.3974H470.945V49.8619Z" fill="white"/>
<path d="M487.213 50.6298H488.763V52.1652H487.213V50.6298Z" fill="white"/>
<path d="M454.677 50.6298H456.227V52.1652H454.677V50.6298Z" fill="white"/>
<path d="M320.5 25.6C320.5 21.1113 320.5 17.7749 320.716 15.1319C320.932 12.4948 321.359 10.5922 322.189 8.96315C323.675 6.04664 326.047 3.67544 328.963 2.1894C330.592 1.35935 332.495 0.931787 335.132 0.716326C337.775 0.500389 341.111 0.5 345.6 0.5H598.4C602.889 0.5 606.225 0.500389 608.868 0.716326C611.505 0.931787 613.408 1.35935 615.037 2.1894C617.953 3.67544 620.325 6.04664 621.811 8.96315C622.641 10.5922 623.068 12.4948 623.284 15.1319C623.5 17.7749 623.5 21.1113 623.5 25.6V87.5H320.5V25.6Z" stroke="white"/>
<path d="M366.2 123.64C366.819 123.832 367.288 124.131 367.608 124.536C367.939 124.931 368.104 125.416 368.104 125.992V126.184C368.104 127.048 367.774 127.736 367.112 128.248C366.451 128.749 365.566 129 364.456 129H358.232V118.504H364.104C365.256 118.504 366.152 118.733 366.792 119.192C367.432 119.651 367.752 120.291 367.752 121.112V121.32C367.752 121.843 367.619 122.301 367.352 122.696C367.086 123.091 366.702 123.405 366.2 123.64ZM359.448 119.608V123.16H364.088C364.878 123.16 365.48 123.016 365.896 122.728C366.312 122.429 366.52 122.003 366.52 121.448V121.256C366.52 120.733 366.307 120.328 365.88 120.04C365.464 119.752 364.872 119.608 364.104 119.608H359.448ZM366.856 125.96C366.856 125.405 366.648 124.984 366.232 124.696C365.816 124.397 365.214 124.248 364.424 124.248H359.448V127.896H364.424C365.192 127.896 365.79 127.741 366.216 127.432C366.643 127.123 366.856 126.696 366.856 126.152V125.96ZM376.491 123.688C377.472 123.688 378.224 123.923 378.747 124.392C379.28 124.851 379.547 125.475 379.547 126.264V126.472C379.547 127.24 379.28 127.853 378.747 128.312C378.224 128.771 377.472 129 376.491 129H370.843V121.112H372.027V123.688H376.491ZM382.011 121.112V129H380.827V121.112H382.011ZM378.331 126.264C378.331 125.784 378.171 125.411 377.851 125.144C377.542 124.877 377.062 124.744 376.411 124.744H372.027V127.96H376.411C377.062 127.96 377.542 127.827 377.851 127.56C378.171 127.293 378.331 126.931 378.331 126.472V126.264ZM393.536 121.112V129H392.352V122.168H386.272V129H385.088V121.112H393.536ZM400.481 129.176C399.531 129.176 398.699 129.016 397.985 128.696C397.281 128.376 396.737 127.917 396.353 127.32C395.979 126.723 395.793 126.024 395.793 125.224V124.92C395.793 124.109 395.979 123.405 396.353 122.808C396.737 122.2 397.281 121.736 397.985 121.416C398.689 121.096 399.521 120.936 400.481 120.936C401.419 120.936 402.235 121.101 402.929 121.432C403.633 121.752 404.171 122.211 404.545 122.808C404.929 123.405 405.121 124.109 405.121 124.92V125.224C405.121 126.024 404.929 126.723 404.545 127.32C404.171 127.917 403.633 128.376 402.929 128.696C402.235 129.016 401.419 129.176 400.481 129.176ZM400.465 128.088C401.531 128.088 402.369 127.832 402.977 127.32C403.595 126.808 403.905 126.109 403.905 125.224V124.92C403.905 124.024 403.595 123.32 402.977 122.808C402.369 122.285 401.531 122.024 400.465 122.024C399.377 122.024 398.529 122.28 397.921 122.792C397.313 123.304 397.009 124.013 397.009 124.92V125.224C397.009 126.109 397.318 126.808 397.937 127.32C398.555 127.832 399.398 128.088 400.465 128.088ZM415.741 129H414.557V122.168H409.197L409.117 125.368C409.085 126.627 408.856 127.549 408.429 128.136C408.013 128.712 407.368 129 406.493 129H405.837V127.944H406.237C406.834 127.944 407.266 127.741 407.533 127.336C407.81 126.931 407.96 126.253 407.981 125.304L408.077 121.112H415.741V129ZM419.804 121.112V124.52H426.044V121.112H427.228V129H426.044V125.576H419.804V129H418.62V121.112H419.804ZM438.445 128.984H437.261V126.216H434.525L431.069 129H429.533V128.84L432.813 126.216H432.637C431.645 126.216 430.872 126.003 430.317 125.576C429.773 125.149 429.501 124.547 429.501 123.768V123.608C429.501 122.819 429.773 122.205 430.317 121.768C430.872 121.331 431.645 121.112 432.637 121.112H438.445V128.984ZM437.261 125.208V122.152H432.733C432.072 122.152 431.571 122.28 431.229 122.536C430.888 122.781 430.717 123.139 430.717 123.608V123.768C430.717 124.237 430.888 124.595 431.229 124.84C431.571 125.085 432.072 125.208 432.733 125.208H437.261ZM442.475 121.112V127.544L448.763 121.112H449.851V129H448.699V122.568L442.411 129H441.323V121.112H442.475ZM445.595 119.912C444.496 119.912 443.664 119.741 443.099 119.4C442.533 119.048 442.251 118.541 442.251 117.88V117.8H443.339V117.88C443.339 118.211 443.531 118.467 443.915 118.648C444.299 118.819 444.859 118.904 445.595 118.904C446.309 118.904 446.853 118.819 447.227 118.648C447.6 118.467 447.787 118.211 447.787 117.88V117.8H448.939V117.88C448.939 118.552 448.656 119.059 448.091 119.4C447.525 119.741 446.693 119.912 445.595 119.912ZM468.111 121.112V121.288L463.471 129.976C463.13 130.605 462.741 131.053 462.303 131.32C461.877 131.587 461.279 131.72 460.511 131.72H459.087V130.68H460.495C460.997 130.68 461.37 130.605 461.615 130.456C461.871 130.307 462.111 130.013 462.335 129.576L462.591 129.096L458.431 121.288V121.112H459.663L463.279 127.944L466.879 121.112H468.111ZM478.74 121.112V129H477.556V122.168H471.476V129H470.292V121.112H478.74ZM486.068 120.936C487.006 120.936 487.828 121.101 488.532 121.432C489.236 121.752 489.774 122.211 490.148 122.808C490.532 123.405 490.724 124.104 490.724 124.904V125.192C490.724 125.992 490.532 126.696 490.148 127.304C489.764 127.901 489.22 128.365 488.516 128.696C487.822 129.016 487.006 129.176 486.068 129.176C485.428 129.176 484.825 129.069 484.26 128.856C483.705 128.643 483.22 128.339 482.804 127.944V131.72H481.62V121.112H482.724L482.772 122.216C483.177 121.811 483.662 121.496 484.228 121.272C484.804 121.048 485.417 120.936 486.068 120.936ZM489.508 124.904C489.508 124.008 489.198 123.304 488.58 122.792C487.972 122.28 487.129 122.024 486.052 122.024C485.369 122.024 484.734 122.152 484.148 122.408C483.572 122.664 483.124 123.011 482.804 123.448V126.648C483.124 127.085 483.572 127.437 484.148 127.704C484.734 127.96 485.369 128.088 486.052 128.088C487.129 128.088 487.972 127.832 488.58 127.32C489.198 126.808 489.508 126.099 489.508 125.192V124.904ZM502.947 127.96V129H501.971C501.448 129 501.016 128.888 500.675 128.664C500.334 128.44 500.11 128.125 500.003 127.72C499.107 128.691 497.827 129.176 496.163 129.176C495.032 129.176 494.168 128.989 493.571 128.616C492.974 128.232 492.675 127.683 492.675 126.968C492.675 125.688 493.635 124.947 495.555 124.744L499.939 124.28V124.264C499.939 123.539 499.683 122.989 499.171 122.616C498.659 122.243 497.907 122.056 496.915 122.056C496.008 122.056 495.278 122.227 494.723 122.568C494.168 122.909 493.891 123.357 493.891 123.912V124.008H492.723V123.912C492.723 123.336 492.899 122.824 493.251 122.376C493.603 121.917 494.094 121.565 494.723 121.32C495.363 121.064 496.099 120.936 496.931 120.936C498.254 120.936 499.283 121.229 500.019 121.816C500.755 122.403 501.123 123.224 501.123 124.28V126.952C501.123 127.272 501.219 127.523 501.411 127.704C501.603 127.875 501.88 127.96 502.243 127.96H502.947ZM496.147 128.136C497.032 128.136 497.806 127.992 498.467 127.704C499.128 127.405 499.619 126.989 499.939 126.456V125.256L495.795 125.688C495.134 125.763 494.643 125.907 494.323 126.12C494.014 126.323 493.859 126.605 493.859 126.968C493.859 127.747 494.622 128.136 496.147 128.136ZM518.64 128.824V129H517.328L513.904 125.56H511.728V129H510.544V125.56H508.368L504.944 129H503.632V128.824L507.376 125L503.84 121.288V121.112H505.168L508.432 124.52H510.544V121.112H511.728V124.52H513.84L517.104 121.112H518.432V121.288L514.896 125.016L518.64 128.824ZM521.897 121.112V124.52H528.137V121.112H529.321V129H528.137V125.576H521.897V129H520.713V121.112H521.897ZM540.678 125.448H532.806C532.838 126.269 533.152 126.915 533.75 127.384C534.358 127.853 535.174 128.088 536.198 128.088C537.136 128.088 537.899 127.917 538.486 127.576C539.072 127.235 539.382 126.781 539.414 126.216H540.678C540.614 127.133 540.182 127.859 539.382 128.392C538.582 128.915 537.52 129.176 536.198 129.176C535.259 129.176 534.443 129.016 533.75 128.696C533.056 128.376 532.518 127.923 532.134 127.336C531.76 126.739 531.574 126.04 531.574 125.24V124.888C531.574 124.088 531.76 123.389 532.134 122.792C532.518 122.195 533.056 121.736 533.75 121.416C534.443 121.096 535.259 120.936 536.198 120.936C537.104 120.936 537.894 121.096 538.566 121.416C539.248 121.725 539.771 122.173 540.134 122.76C540.496 123.347 540.678 124.04 540.678 124.84V125.448ZM536.182 122.024C535.2 122.024 534.411 122.243 533.814 122.68C533.227 123.107 532.896 123.699 532.822 124.456H539.43C539.366 123.699 539.046 123.107 538.47 122.68C537.894 122.243 537.131 122.024 536.182 122.024ZM544.116 121.112V124.52H550.356V121.112H551.54V129H550.356V125.576H544.116V129H542.932V121.112H544.116ZM555.569 121.112V127.544L561.857 121.112H562.945V129H561.793V122.568L555.505 129H554.417V121.112H555.569ZM574.164 128.984H572.98V126.216H570.244L566.788 129H565.252V128.84L568.532 126.216H568.356C567.364 126.216 566.591 126.003 566.036 125.576C565.492 125.149 565.22 124.547 565.22 123.768V123.608C565.22 122.819 565.492 122.205 566.036 121.768C566.591 121.331 567.364 121.112 568.356 121.112H574.164V128.984ZM572.98 125.208V122.152H568.452C567.791 122.152 567.289 122.28 566.948 122.536C566.607 122.781 566.436 123.139 566.436 123.608V123.768C566.436 124.237 566.607 124.595 566.948 124.84C567.289 125.085 567.791 125.208 568.452 125.208H572.98ZM579.41 127.144V127.336L578.018 131.288H576.882L578.066 127.144H579.41ZM358.426 148.176C357.487 148.176 356.666 148.016 355.962 147.696C355.258 147.376 354.714 146.917 354.33 146.32C353.946 145.723 353.754 145.029 353.754 144.24V143.92C353.754 143.12 353.94 142.421 354.314 141.824C354.698 141.216 355.242 140.752 355.946 140.432C356.65 140.101 357.476 139.936 358.426 139.936C359.279 139.936 360.042 140.08 360.714 140.368C361.396 140.645 361.93 141.04 362.314 141.552C362.698 142.053 362.89 142.619 362.89 143.248V143.328H361.674V143.248C361.674 142.821 361.53 142.443 361.242 142.112C360.964 141.771 360.58 141.504 360.09 141.312C359.599 141.12 359.044 141.024 358.426 141.024C357.348 141.024 356.5 141.285 355.882 141.808C355.274 142.32 354.97 143.029 354.97 143.936V144.224C354.97 145.109 355.274 145.808 355.882 146.32C356.5 146.832 357.348 147.088 358.426 147.088C359.044 147.088 359.599 146.992 360.09 146.8C360.591 146.608 360.98 146.347 361.258 146.016C361.535 145.685 361.674 145.307 361.674 144.88V144.8H362.89V144.88C362.89 145.52 362.698 146.091 362.314 146.592C361.94 147.093 361.412 147.483 360.73 147.76C360.058 148.037 359.29 148.176 358.426 148.176ZM371.672 140.112V141.168H366.28V148H365.096V140.112H371.672ZM381.404 144.448H373.532C373.564 145.269 373.879 145.915 374.476 146.384C375.084 146.853 375.9 147.088 376.924 147.088C377.863 147.088 378.626 146.917 379.212 146.576C379.799 146.235 380.108 145.781 380.14 145.216H381.404C381.34 146.133 380.908 146.859 380.108 147.392C379.308 147.915 378.247 148.176 376.924 148.176C375.986 148.176 375.17 148.016 374.476 147.696C373.783 147.376 373.244 146.923 372.86 146.336C372.487 145.739 372.3 145.04 372.3 144.24V143.888C372.3 143.088 372.487 142.389 372.86 141.792C373.244 141.195 373.783 140.736 374.476 140.416C375.17 140.096 375.986 139.936 376.924 139.936C377.831 139.936 378.62 140.096 379.292 140.416C379.975 140.725 380.498 141.173 380.86 141.76C381.223 142.347 381.404 143.04 381.404 143.84V144.448ZM376.908 141.024C375.927 141.024 375.138 141.243 374.54 141.68C373.954 142.107 373.623 142.699 373.548 143.456H380.156C380.092 142.699 379.772 142.107 379.196 141.68C378.62 141.243 377.858 141.024 376.908 141.024ZM384.843 140.112V143.52H391.083V140.112H392.267V148H391.083V144.576H384.843V148H383.659V140.112H384.843ZM403.623 144.448H395.751C395.783 145.269 396.098 145.915 396.695 146.384C397.303 146.853 398.119 147.088 399.143 147.088C400.082 147.088 400.844 146.917 401.431 146.576C402.018 146.235 402.327 145.781 402.359 145.216H403.623C403.559 146.133 403.127 146.859 402.327 147.392C401.527 147.915 400.466 148.176 399.143 148.176C398.204 148.176 397.388 148.016 396.695 147.696C396.002 147.376 395.463 146.923 395.079 146.336C394.706 145.739 394.519 145.04 394.519 144.24V143.888C394.519 143.088 394.706 142.389 395.079 141.792C395.463 141.195 396.002 140.736 396.695 140.416C397.388 140.096 398.204 139.936 399.143 139.936C400.05 139.936 400.839 140.096 401.511 140.416C402.194 140.725 402.716 141.173 403.079 141.76C403.442 142.347 403.623 143.04 403.623 143.84V144.448ZM399.127 141.024C398.146 141.024 397.356 141.243 396.759 141.68C396.172 142.107 395.842 142.699 395.767 143.456H402.375C402.311 142.699 401.991 142.107 401.415 141.68C400.839 141.243 400.076 141.024 399.127 141.024ZM410.326 139.936C411.264 139.936 412.086 140.101 412.79 140.432C413.494 140.752 414.032 141.211 414.406 141.808C414.79 142.405 414.982 143.104 414.982 143.904V144.192C414.982 144.992 414.79 145.696 414.406 146.304C414.022 146.901 413.478 147.365 412.774 147.696C412.08 148.016 411.264 148.176 410.326 148.176C409.686 148.176 409.083 148.069 408.518 147.856C407.963 147.643 407.478 147.339 407.062 146.944V150.72H405.878V140.112H406.982L407.03 141.216C407.435 140.811 407.92 140.496 408.486 140.272C409.062 140.048 409.675 139.936 410.326 139.936ZM413.766 143.904C413.766 143.008 413.456 142.304 412.838 141.792C412.23 141.28 411.387 141.024 410.31 141.024C409.627 141.024 408.992 141.152 408.406 141.408C407.83 141.664 407.382 142.011 407.062 142.448V145.648C407.382 146.085 407.83 146.437 408.406 146.704C408.992 146.96 409.627 147.088 410.31 147.088C411.387 147.088 412.23 146.832 412.838 146.32C413.456 145.808 413.766 145.099 413.766 144.192V143.904ZM418.389 140.112V146.544L424.677 140.112H425.765V148H424.613V141.568L418.325 148H417.237V140.112H418.389ZM433.091 139.936C434.03 139.936 434.851 140.101 435.555 140.432C436.259 140.752 436.798 141.211 437.171 141.808C437.555 142.405 437.747 143.104 437.747 143.904V144.192C437.747 144.992 437.555 145.696 437.171 146.304C436.787 146.901 436.243 147.365 435.539 147.696C434.846 148.016 434.03 148.176 433.091 148.176C432.451 148.176 431.848 148.069 431.283 147.856C430.728 147.643 430.243 147.339 429.827 146.944V150.72H428.643V140.112H429.747L429.795 141.216C430.2 140.811 430.686 140.496 431.251 140.272C431.827 140.048 432.44 139.936 433.091 139.936ZM436.531 143.904C436.531 143.008 436.222 142.304 435.603 141.792C434.995 141.28 434.152 141.024 433.075 141.024C432.392 141.024 431.758 141.152 431.171 141.408C430.595 141.664 430.147 142.011 429.827 142.448V145.648C430.147 146.085 430.595 146.437 431.171 146.704C431.758 146.96 432.392 147.088 433.075 147.088C434.152 147.088 434.995 146.832 435.603 146.32C436.222 145.808 436.531 145.099 436.531 144.192V143.904ZM444.067 148.176C443.117 148.176 442.285 148.016 441.571 147.696C440.867 147.376 440.323 146.917 439.939 146.32C439.565 145.723 439.379 145.024 439.379 144.224V143.92C439.379 143.109 439.565 142.405 439.939 141.808C440.323 141.2 440.867 140.736 441.571 140.416C442.275 140.096 443.107 139.936 444.067 139.936C445.005 139.936 445.821 140.101 446.515 140.432C447.219 140.752 447.757 141.211 448.131 141.808C448.515 142.405 448.707 143.109 448.707 143.92V144.224C448.707 145.024 448.515 145.723 448.131 146.32C447.757 146.917 447.219 147.376 446.515 147.696C445.821 148.016 445.005 148.176 444.067 148.176ZM444.051 147.088C445.117 147.088 445.955 146.832 446.562 146.32C447.181 145.808 447.491 145.109 447.491 144.224V143.92C447.491 143.024 447.181 142.32 446.562 141.808C445.955 141.285 445.117 141.024 444.051 141.024C442.963 141.024 442.115 141.28 441.507 141.792C440.899 142.304 440.595 143.013 440.595 143.92V144.224C440.595 145.109 440.904 145.808 441.523 146.32C442.141 146.832 442.984 147.088 444.051 147.088ZM458.444 144C459.414 144.299 459.9 144.869 459.9 145.712V145.872C459.9 146.555 459.644 147.083 459.132 147.456C458.62 147.819 457.889 148 456.94 148H450.956V140.112H456.732C457.681 140.112 458.412 140.293 458.924 140.656C459.446 141.019 459.708 141.525 459.708 142.176V142.336C459.708 142.72 459.596 143.056 459.372 143.344C459.158 143.621 458.849 143.84 458.444 144ZM452.14 141.04V143.552H456.684C457.26 143.552 457.702 143.451 458.012 143.248C458.332 143.035 458.492 142.736 458.492 142.352V142.192C458.492 141.819 458.337 141.536 458.028 141.344C457.718 141.141 457.27 141.04 456.684 141.04H452.14ZM458.684 145.696C458.684 145.312 458.529 145.019 458.22 144.816C457.91 144.603 457.473 144.496 456.908 144.496H452.14V147.072H456.908C457.484 147.072 457.921 146.971 458.22 146.768C458.529 146.555 458.684 146.251 458.684 145.856V145.696ZM472.283 146.96V148H471.307C470.784 148 470.352 147.888 470.011 147.664C469.67 147.44 469.446 147.125 469.339 146.72C468.443 147.691 467.163 148.176 465.499 148.176C464.368 148.176 463.504 147.989 462.907 147.616C462.31 147.232 462.011 146.683 462.011 145.968C462.011 144.688 462.971 143.947 464.891 143.744L469.275 143.28V143.264C469.275 142.539 469.019 141.989 468.507 141.616C467.995 141.243 467.243 141.056 466.251 141.056C465.344 141.056 464.614 141.227 464.059 141.568C463.504 141.909 463.227 142.357 463.227 142.912V143.008H462.059V142.912C462.059 142.336 462.235 141.824 462.587 141.376C462.939 140.917 463.43 140.565 464.059 140.32C464.699 140.064 465.435 139.936 466.267 139.936C467.59 139.936 468.619 140.229 469.355 140.816C470.091 141.403 470.459 142.224 470.459 143.28V145.952C470.459 146.272 470.555 146.523 470.747 146.704C470.939 146.875 471.216 146.96 471.579 146.96H472.283ZM465.483 147.136C466.368 147.136 467.142 146.992 467.803 146.704C468.464 146.405 468.955 145.989 469.275 145.456V144.256L465.131 144.688C464.47 144.763 463.979 144.907 463.659 145.12C463.35 145.323 463.195 145.605 463.195 145.968C463.195 146.747 463.958 147.136 465.483 147.136ZM474.952 140.112V143.52H481.192V140.112H482.376V148H481.192V144.576H474.952V148H473.768V140.112H474.952ZM486.437 140.112V143.52H492.677V140.112H493.861V148H492.677V144.576H486.437V148H485.253V140.112H486.437ZM502.577 142.688C503.558 142.688 504.31 142.923 504.833 143.392C505.366 143.851 505.633 144.475 505.633 145.264V145.472C505.633 146.24 505.366 146.853 504.833 147.312C504.31 147.771 503.558 148 502.577 148H496.929V140.112H498.113V142.688H502.577ZM508.097 140.112V148H506.913V140.112H508.097ZM504.417 145.264C504.417 144.784 504.257 144.411 503.937 144.144C503.628 143.877 503.148 143.744 502.497 143.744H498.113V146.96H502.497C503.148 146.96 503.628 146.827 503.937 146.56C504.257 146.293 504.417 145.931 504.417 145.472V145.264ZM519.654 144.448H511.782C511.814 145.269 512.129 145.915 512.726 146.384C513.334 146.853 514.15 147.088 515.174 147.088C516.113 147.088 516.876 146.917 517.462 146.576C518.049 146.235 518.358 145.781 518.39 145.216H519.654C519.59 146.133 519.158 146.859 518.358 147.392C517.558 147.915 516.497 148.176 515.174 148.176C514.236 148.176 513.42 148.016 512.726 147.696C512.033 147.376 511.494 146.923 511.11 146.336C510.737 145.739 510.55 145.04 510.55 144.24V143.888C510.55 143.088 510.737 142.389 511.11 141.792C511.494 141.195 512.033 140.736 512.726 140.416C513.42 140.096 514.236 139.936 515.174 139.936C516.081 139.936 516.87 140.096 517.542 140.416C518.225 140.725 518.748 141.173 519.11 141.76C519.473 142.347 519.654 143.04 519.654 143.84V144.448ZM515.158 141.024C514.177 141.024 513.388 141.243 512.79 141.68C512.204 142.107 511.873 142.699 511.798 143.456H518.406C518.342 142.699 518.022 142.107 517.446 141.68C516.87 141.243 516.108 141.024 515.158 141.024ZM527.067 141.184V140.112H536.379V141.184H532.363V148H531.163V141.184H527.067ZM541.785 148.176C540.836 148.176 540.004 148.016 539.289 147.696C538.585 147.376 538.041 146.917 537.657 146.32C537.284 145.723 537.097 145.024 537.097 144.224V143.92C537.097 143.109 537.284 142.405 537.657 141.808C538.041 141.2 538.585 140.736 539.289 140.416C539.993 140.096 540.825 139.936 541.785 139.936C542.724 139.936 543.54 140.101 544.233 140.432C544.937 140.752 545.476 141.211 545.849 141.808C546.233 142.405 546.425 143.109 546.425 143.92V144.224C546.425 145.024 546.233 145.723 545.849 146.32C545.476 146.917 544.937 147.376 544.233 147.696C543.54 148.016 542.724 148.176 541.785 148.176ZM541.769 147.088C542.836 147.088 543.673 146.832 544.281 146.32C544.9 145.808 545.209 145.109 545.209 144.224V143.92C545.209 143.024 544.9 142.32 544.281 141.808C543.673 141.285 542.836 141.024 541.769 141.024C540.681 141.024 539.833 141.28 539.225 141.792C538.617 142.304 538.313 143.013 538.313 143.92V144.224C538.313 145.109 538.623 145.808 539.241 146.32C539.86 146.832 540.703 147.088 541.769 147.088ZM557.046 148H555.862V141.168H550.502L550.422 144.368C550.39 145.627 550.16 146.549 549.734 147.136C549.318 147.712 548.672 148 547.798 148H547.142V146.944H547.542C548.139 146.944 548.571 146.741 548.838 146.336C549.115 145.931 549.264 145.253 549.286 144.304L549.382 140.112H557.046V148ZM565.828 142.688C566.788 142.688 567.535 142.912 568.068 143.36C568.602 143.808 568.868 144.437 568.868 145.248V145.456C568.868 146.245 568.596 146.864 568.052 147.312C567.519 147.76 566.778 147.984 565.828 147.984H559.924V140.112H561.108V142.688H565.828ZM567.652 145.248C567.652 144.757 567.487 144.384 567.156 144.128C566.836 143.872 566.367 143.744 565.748 143.744H561.108V146.944H565.748C566.367 146.944 566.836 146.816 567.156 146.56C567.487 146.304 567.652 145.936 567.652 145.456V145.248ZM580.102 147.824V148H578.758L574.918 144.544H572.374V148H571.19V140.112H572.374V143.52H574.87L578.534 140.112H579.894V140.288L575.974 144L580.102 147.824ZM585.613 148.176C584.664 148.176 583.832 148.016 583.117 147.696C582.413 147.376 581.869 146.917 581.485 146.32C581.112 145.723 580.925 145.024 580.925 144.224V143.92C580.925 143.109 581.112 142.405 581.485 141.808C581.869 141.2 582.413 140.736 583.117 140.416C583.821 140.096 584.653 139.936 585.613 139.936C586.552 139.936 587.368 140.101 588.061 140.432C588.765 140.752 589.304 141.211 589.677 141.808C590.061 142.405 590.253 143.109 590.253 143.92V144.224C590.253 145.024 590.061 145.723 589.677 146.32C589.304 146.917 588.765 147.376 588.061 147.696C587.368 148.016 586.552 148.176 585.613 148.176ZM585.597 147.088C586.664 147.088 587.501 146.832 588.109 146.32C588.728 145.808 589.037 145.109 589.037 144.224V143.92C589.037 143.024 588.728 142.32 588.109 141.808C587.501 141.285 586.664 141.024 585.597 141.024C584.509 141.024 583.661 141.28 583.053 141.792C582.445 142.304 582.141 143.013 582.141 143.92V144.224C582.141 145.109 582.451 145.808 583.069 146.32C583.688 146.832 584.531 147.088 585.597 147.088ZM441.794 165.96V169.048H440.61V167H431.49V169.048H430.322L430.306 165.96H431.506C432.082 165.128 432.376 164.115 432.386 162.92L432.45 159.112H440.178V165.96H441.794ZM439.01 165.96V160.168H433.538L433.474 162.936C433.464 163.587 433.389 164.157 433.25 164.648C433.122 165.139 432.936 165.576 432.69 165.96H439.01ZM452.186 167H451.002V160.168H445.642L445.562 163.368C445.53 164.627 445.301 165.549 444.874 166.136C444.458 166.712 443.813 167 442.938 167H442.282V165.944H442.682C443.28 165.944 443.712 165.741 443.978 165.336C444.256 164.931 444.405 164.253 444.426 163.304L444.522 159.112H452.186V167ZM463.406 166.984H462.222V164.216H459.486L456.03 167H454.494V166.84L457.774 164.216H457.598C456.606 164.216 455.833 164.003 455.278 163.576C454.734 163.149 454.462 162.547 454.462 161.768V161.608C454.462 160.819 454.734 160.205 455.278 159.768C455.833 159.331 456.606 159.112 457.598 159.112H463.406V166.984ZM462.222 163.208V160.152H457.694C457.033 160.152 456.532 160.28 456.19 160.536C455.849 160.781 455.678 161.139 455.678 161.608V161.768C455.678 162.237 455.849 162.595 456.19 162.84C456.532 163.085 457.033 163.208 457.694 163.208H462.222ZM471.442 160.184V159.112H480.754V160.184H476.738V167H475.538V160.184H471.442ZM490.576 163.448H482.704C482.736 164.269 483.051 164.915 483.648 165.384C484.256 165.853 485.072 166.088 486.096 166.088C487.035 166.088 487.798 165.917 488.384 165.576C488.971 165.235 489.28 164.781 489.312 164.216H490.576C490.512 165.133 490.08 165.859 489.28 166.392C488.48 166.915 487.419 167.176 486.096 167.176C485.158 167.176 484.342 167.016 483.648 166.696C482.955 166.376 482.416 165.923 482.032 165.336C481.659 164.739 481.472 164.04 481.472 163.24V162.888C481.472 162.088 481.659 161.389 482.032 160.792C482.416 160.195 482.955 159.736 483.648 159.416C484.342 159.096 485.158 158.936 486.096 158.936C487.003 158.936 487.792 159.096 488.464 159.416C489.147 159.725 489.67 160.173 490.032 160.76C490.395 161.347 490.576 162.04 490.576 162.84V163.448ZM486.08 160.024C485.099 160.024 484.31 160.243 483.712 160.68C483.126 161.107 482.795 161.699 482.72 162.456H489.328C489.264 161.699 488.944 161.107 488.368 160.68C487.792 160.243 487.03 160.024 486.08 160.024ZM497.439 159.448C498.313 159.448 499.081 159.603 499.743 159.912C500.415 160.211 500.932 160.643 501.295 161.208C501.657 161.763 501.839 162.408 501.839 163.144V163.512C501.839 164.248 501.647 164.893 501.263 165.448C500.889 166.003 500.351 166.429 499.647 166.728C498.953 167.027 498.148 167.176 497.231 167.176C495.695 167.176 494.516 166.776 493.695 165.976C492.873 165.165 492.463 164.003 492.463 162.488V161.448C492.463 159.933 492.847 158.787 493.615 158.008C494.393 157.219 495.588 156.765 497.199 156.648L499.455 156.472C499.689 156.461 499.855 156.419 499.951 156.344C500.057 156.269 500.111 156.157 500.111 156.008V155.864H501.375V156.056C501.375 156.525 501.241 156.883 500.975 157.128C500.708 157.363 500.297 157.501 499.743 157.544L497.215 157.736C495.988 157.832 495.081 158.141 494.495 158.664C493.919 159.176 493.62 159.933 493.599 160.936C494.025 160.456 494.569 160.088 495.231 159.832C495.903 159.576 496.639 159.448 497.439 159.448ZM500.623 163.16C500.623 162.349 500.313 161.709 499.695 161.24C499.087 160.76 498.255 160.52 497.199 160.52C496.441 160.52 495.759 160.659 495.151 160.936C494.543 161.203 494.041 161.597 493.647 162.12V162.776C493.647 163.864 493.945 164.691 494.543 165.256C495.151 165.821 496.036 166.104 497.199 166.104C498.244 166.104 499.076 165.869 499.695 165.4C500.313 164.931 500.623 164.301 500.623 163.512V163.16ZM512.656 166.984H511.472V164.216H508.736L505.28 167H503.744V166.84L507.024 164.216H506.848C505.856 164.216 505.083 164.003 504.528 163.576C503.984 163.149 503.712 162.547 503.712 161.768V161.608C503.712 160.819 503.984 160.205 504.528 159.768C505.083 159.331 505.856 159.112 506.848 159.112H512.656V166.984ZM511.472 163.208V160.152H506.944C506.283 160.152 505.782 160.28 505.44 160.536C505.099 160.781 504.928 161.139 504.928 161.608V161.768C504.928 162.237 505.099 162.595 505.44 162.84C505.782 163.085 506.283 163.208 506.944 163.208H511.472Z" fill="white"/>
<path d="M320.5 16C320.5 7.43959 327.44 0.5 336 0.5H608C616.56 0.5 623.5 7.43959 623.5 16V181C623.5 189.56 616.56 196.5 608 196.5H336C327.44 196.5 320.5 189.56 320.5 181V16Z" stroke="white"/>
<path d="M31.968 242.504C33.1093 242.504 34.0107 242.776 34.672 243.32C35.3333 243.853 35.664 244.579 35.664 245.496V245.688C35.664 246.605 35.3333 247.331 34.672 247.864C34.0107 248.397 33.1093 248.664 31.968 248.664H26.8V253H25.584V242.504H31.968ZM31.936 247.56C32.7147 247.56 33.3227 247.395 33.76 247.064C34.208 246.733 34.432 246.275 34.432 245.688V245.496C34.432 244.899 34.2133 244.435 33.776 244.104C33.3387 243.773 32.7253 243.608 31.936 243.608H26.8V247.56H31.936ZM47.7049 251.96V253H46.7289C46.2062 253 45.7742 252.888 45.4329 252.664C45.0915 252.44 44.8675 252.125 44.7609 251.72C43.8649 252.691 42.5849 253.176 40.9209 253.176C39.7902 253.176 38.9262 252.989 38.3289 252.616C37.7315 252.232 37.4329 251.683 37.4329 250.968C37.4329 249.688 38.3929 248.947 40.3129 248.744L44.6969 248.28V248.264C44.6969 247.539 44.4409 246.989 43.9289 246.616C43.4169 246.243 42.6649 246.056 41.6729 246.056C40.7662 246.056 40.0355 246.227 39.4809 246.568C38.9262 246.909 38.6489 247.357 38.6489 247.912V248.008H37.4809V247.912C37.4809 247.336 37.6569 246.824 38.0089 246.376C38.3609 245.917 38.8515 245.565 39.4809 245.32C40.1209 245.064 40.8569 244.936 41.6889 244.936C43.0115 244.936 44.0409 245.229 44.7769 245.816C45.5129 246.403 45.8809 247.224 45.8809 248.28V250.952C45.8809 251.272 45.9769 251.523 46.1689 251.704C46.3609 251.875 46.6382 251.96 47.0009 251.96H47.7049ZM40.9049 252.136C41.7902 252.136 42.5635 251.992 43.2249 251.704C43.8862 251.405 44.3769 250.989 44.6969 250.456V249.256L40.5529 249.688C39.8915 249.763 39.4009 249.907 39.0809 250.12C38.7715 250.323 38.6169 250.605 38.6169 250.968C38.6169 251.747 39.3795 252.136 40.9049 252.136ZM56.262 249C56.7207 249.16 57.078 249.389 57.334 249.688C57.59 249.987 57.718 250.328 57.718 250.712V250.824C57.718 251.603 57.3447 252.189 56.598 252.584C55.8513 252.979 54.7473 253.176 53.286 253.176C51.7607 253.176 50.6087 252.909 49.83 252.376C49.0513 251.843 48.662 251.043 48.662 249.976V249.864H49.846V249.976C49.846 250.701 50.1287 251.245 50.694 251.608C51.27 251.96 52.1393 252.136 53.302 252.136C54.4007 252.136 55.206 252.029 55.718 251.816C56.2407 251.592 56.502 251.245 56.502 250.776V250.648C56.502 250.285 56.3367 250.013 56.006 249.832C55.686 249.64 55.2167 249.544 54.598 249.544H51.83V248.504H54.422C55.0407 248.504 55.5047 248.413 55.814 248.232C56.134 248.04 56.294 247.757 56.294 247.384V247.256C56.294 246.403 55.254 245.976 53.174 245.976C52.0433 245.976 51.206 246.157 50.662 246.52C50.118 246.872 49.846 247.416 49.846 248.152V248.264H48.662V248.152C48.662 247.107 49.0513 246.312 49.83 245.768C50.6087 245.213 51.7447 244.936 53.238 244.936C54.6247 244.936 55.6807 245.133 56.406 245.528C57.142 245.912 57.51 246.477 57.51 247.224V247.352C57.51 247.704 57.398 248.024 57.174 248.312C56.9607 248.589 56.6567 248.819 56.262 249ZM66.7035 245.112V246.168H61.3115V253H60.1275V245.112H66.7035ZM72.0196 253.176C71.0703 253.176 70.2383 253.016 69.5236 252.696C68.8196 252.376 68.2756 251.917 67.8916 251.32C67.5183 250.723 67.3316 250.024 67.3316 249.224V248.92C67.3316 248.109 67.5183 247.405 67.8916 246.808C68.2756 246.2 68.8196 245.736 69.5236 245.416C70.2276 245.096 71.0596 244.936 72.0196 244.936C72.9583 244.936 73.7743 245.101 74.4676 245.432C75.1716 245.752 75.7103 246.211 76.0836 246.808C76.4676 247.405 76.6596 248.109 76.6596 248.92V249.224C76.6596 250.024 76.4676 250.723 76.0836 251.32C75.7103 251.917 75.1716 252.376 74.4676 252.696C73.7743 253.016 72.9583 253.176 72.0196 253.176ZM72.0036 252.088C73.0703 252.088 73.9076 251.832 74.5156 251.32C75.1343 250.808 75.4436 250.109 75.4436 249.224V248.92C75.4436 248.024 75.1343 247.32 74.5156 246.808C73.9076 246.285 73.0703 246.024 72.0036 246.024C70.9156 246.024 70.0676 246.28 69.4596 246.792C68.8516 247.304 68.5476 248.013 68.5476 248.92V249.224C68.5476 250.109 68.857 250.808 69.4756 251.32C70.0943 251.832 70.937 252.088 72.0036 252.088ZM86.3968 249C87.3674 249.299 87.8528 249.869 87.8528 250.712V250.872C87.8528 251.555 87.5968 252.083 87.0848 252.456C86.5728 252.819 85.8421 253 84.8928 253H78.9088V245.112H84.6848C85.6341 245.112 86.3648 245.293 86.8767 245.656C87.3994 246.019 87.6608 246.525 87.6608 247.176V247.336C87.6608 247.72 87.5488 248.056 87.3248 248.344C87.1114 248.621 86.8021 248.84 86.3968 249ZM80.0928 246.04V248.552H84.6368C85.2128 248.552 85.6554 248.451 85.9648 248.248C86.2848 248.035 86.4448 247.736 86.4448 247.352V247.192C86.4448 246.819 86.2901 246.536 85.9808 246.344C85.6714 246.141 85.2234 246.04 84.6368 246.04H80.0928ZM86.6368 250.696C86.6368 250.312 86.4821 250.019 86.1728 249.816C85.8634 249.603 85.4261 249.496 84.8608 249.496H80.0928V252.072H84.8608C85.4368 252.072 85.8741 251.971 86.1728 251.768C86.4821 251.555 86.6368 251.251 86.6368 250.856V250.696ZM100.236 251.96V253H99.2601C98.7375 253 98.3055 252.888 97.9641 252.664C97.6228 252.44 97.3988 252.125 97.2921 251.72C96.3961 252.691 95.1161 253.176 93.4521 253.176C92.3215 253.176 91.4575 252.989 90.8601 252.616C90.2628 252.232 89.9641 251.683 89.9641 250.968C89.9641 249.688 90.9241 248.947 92.8441 248.744L97.2281 248.28V248.264C97.2281 247.539 96.9721 246.989 96.4601 246.616C95.9481 246.243 95.1961 246.056 94.2041 246.056C93.2975 246.056 92.5668 246.227 92.0121 246.568C91.4575 246.909 91.1801 247.357 91.1801 247.912V248.008H90.0121V247.912C90.0121 247.336 90.1881 246.824 90.5401 246.376C90.8921 245.917 91.3828 245.565 92.0121 245.32C92.6521 245.064 93.3881 244.936 94.2201 244.936C95.5428 244.936 96.5721 245.229 97.3081 245.816C98.0441 246.403 98.4121 247.224 98.4121 248.28V250.952C98.4121 251.272 98.5081 251.523 98.7001 251.704C98.8921 251.875 99.1695 251.96 99.5321 251.96H100.236ZM93.4361 252.136C94.3215 252.136 95.0948 251.992 95.7561 251.704C96.4175 251.405 96.9081 250.989 97.2281 250.456V249.256L93.0841 249.688C92.4228 249.763 91.9321 249.907 91.6121 250.12C91.3028 250.323 91.1481 250.605 91.1481 250.968C91.1481 251.747 91.9108 252.136 93.4361 252.136ZM106.169 244.936C107.108 244.936 107.929 245.101 108.633 245.432C109.337 245.752 109.876 246.211 110.249 246.808C110.633 247.405 110.825 248.104 110.825 248.904V249.192C110.825 249.992 110.633 250.696 110.249 251.304C109.865 251.901 109.321 252.365 108.617 252.696C107.924 253.016 107.108 253.176 106.169 253.176C105.529 253.176 104.927 253.069 104.361 252.856C103.807 252.643 103.321 252.339 102.905 251.944V255.72H101.721V245.112H102.825L102.873 246.216C103.279 245.811 103.764 245.496 104.329 245.272C104.905 245.048 105.519 244.936 106.169 244.936ZM109.609 248.904C109.609 248.008 109.3 247.304 108.681 246.792C108.073 246.28 107.231 246.024 106.153 246.024C105.471 246.024 104.836 246.152 104.249 246.408C103.673 246.664 103.225 247.011 102.905 247.448V250.648C103.225 251.085 103.673 251.437 104.249 251.704C104.836 251.96 105.471 252.088 106.153 252.088C107.231 252.088 108.073 251.832 108.681 251.32C109.3 250.808 109.609 250.099 109.609 249.192V248.904ZM114.233 245.112V251.544L120.521 245.112H121.609V253H120.457V246.568L114.169 253H113.081V245.112H114.233ZM131.975 249C132.946 249.299 133.431 249.869 133.431 250.712V250.872C133.431 251.555 133.175 252.083 132.663 252.456C132.151 252.819 131.42 253 130.471 253H124.487V245.112H130.263C131.212 245.112 131.943 245.293 132.455 245.656C132.978 246.019 133.239 246.525 133.239 247.176V247.336C133.239 247.72 133.127 248.056 132.903 248.344C132.69 248.621 132.38 248.84 131.975 249ZM125.671 246.04V248.552H130.215C130.791 248.552 131.234 248.451 131.543 248.248C131.863 248.035 132.023 247.736 132.023 247.352V247.192C132.023 246.819 131.868 246.536 131.559 246.344C131.25 246.141 130.802 246.04 130.215 246.04H125.671ZM132.215 250.696C132.215 250.312 132.06 250.019 131.751 249.816C131.442 249.603 131.004 249.496 130.439 249.496H125.671V252.072H130.439C131.015 252.072 131.452 251.971 131.751 251.768C132.06 251.555 132.215 251.251 132.215 250.856V250.696ZM145.814 251.96V253H144.838C144.316 253 143.884 252.888 143.542 252.664C143.201 252.44 142.977 252.125 142.87 251.72C141.974 252.691 140.694 253.176 139.03 253.176C137.9 253.176 137.036 252.989 136.438 252.616C135.841 252.232 135.542 251.683 135.542 250.968C135.542 249.688 136.502 248.947 138.422 248.744L142.806 248.28V248.264C142.806 247.539 142.55 246.989 142.038 246.616C141.526 246.243 140.774 246.056 139.782 246.056C138.876 246.056 138.145 246.227 137.59 246.568C137.036 246.909 136.758 247.357 136.758 247.912V248.008H135.59V247.912C135.59 247.336 135.766 246.824 136.118 246.376C136.47 245.917 136.961 245.565 137.59 245.32C138.23 245.064 138.966 244.936 139.798 244.936C141.121 244.936 142.15 245.229 142.886 245.816C143.622 246.403 143.99 247.224 143.99 248.28V250.952C143.99 251.272 144.086 251.523 144.278 251.704C144.47 251.875 144.748 251.96 145.11 251.96H145.814ZM139.014 252.136C139.9 252.136 140.673 251.992 141.334 251.704C141.996 251.405 142.486 250.989 142.806 250.456V249.256L138.662 249.688C138.001 249.763 137.51 249.907 137.19 250.12C136.881 250.323 136.726 250.605 136.726 250.968C136.726 251.747 137.489 252.136 139.014 252.136ZM148.451 245.112V251.544L154.739 245.112H155.827V253H154.675V246.568L148.387 253H147.299V245.112H148.451ZM151.571 243.912C150.473 243.912 149.641 243.741 149.075 243.4C148.51 243.048 148.227 242.541 148.227 241.88V241.8H149.315V241.88C149.315 242.211 149.507 242.467 149.891 242.648C150.275 242.819 150.835 242.904 151.571 242.904C152.286 242.904 152.83 242.819 153.203 242.648C153.577 242.467 153.763 242.211 153.763 241.88V241.8H154.915V241.88C154.915 242.552 154.633 243.059 154.067 243.4C153.502 243.741 152.67 243.912 151.571 243.912ZM169.16 253.176C168.221 253.176 167.4 253.016 166.696 252.696C165.992 252.376 165.448 251.917 165.064 251.32C164.68 250.723 164.488 250.029 164.488 249.24V248.92C164.488 248.12 164.675 247.421 165.048 246.824C165.432 246.216 165.976 245.752 166.68 245.432C167.384 245.101 168.211 244.936 169.16 244.936C170.013 244.936 170.776 245.08 171.448 245.368C172.131 245.645 172.664 246.04 173.048 246.552C173.432 247.053 173.624 247.619 173.624 248.248V248.328H172.408V248.248C172.408 247.821 172.264 247.443 171.976 247.112C171.699 246.771 171.315 246.504 170.824 246.312C170.333 246.12 169.779 246.024 169.16 246.024C168.083 246.024 167.235 246.285 166.616 246.808C166.008 247.32 165.704 248.029 165.704 248.936V249.224C165.704 250.109 166.008 250.808 166.616 251.32C167.235 251.832 168.083 252.088 169.16 252.088C169.779 252.088 170.333 251.992 170.824 251.8C171.325 251.608 171.715 251.347 171.992 251.016C172.269 250.685 172.408 250.307 172.408 249.88V249.8H173.624V249.88C173.624 250.52 173.432 251.091 173.048 251.592C172.675 252.093 172.147 252.483 171.464 252.76C170.792 253.037 170.024 253.176 169.16 253.176ZM191.795 252.808V253H190.547L189.139 250.104H182.899L181.491 253H180.243V252.808L185.347 242.504H186.691L191.795 252.808ZM188.595 249L186.019 243.736L183.443 249H188.595ZM195.18 242.504V253H193.948V242.504H195.18ZM213.247 245.112V253H212.063V246.168H205.983V253H204.799V245.112H213.247ZM220.192 253.176C219.242 253.176 218.41 253.016 217.696 252.696C216.992 252.376 216.448 251.917 216.064 251.32C215.69 250.723 215.504 250.024 215.504 249.224V248.92C215.504 248.109 215.69 247.405 216.064 246.808C216.448 246.2 216.992 245.736 217.696 245.416C218.4 245.096 219.232 244.936 220.192 244.936C221.13 244.936 221.946 245.101 222.64 245.432C223.344 245.752 223.882 246.211 224.256 246.808C224.64 247.405 224.832 248.109 224.832 248.92V249.224C224.832 250.024 224.64 250.723 224.256 251.32C223.882 251.917 223.344 252.376 222.64 252.696C221.946 253.016 221.13 253.176 220.192 253.176ZM220.176 252.088C221.242 252.088 222.08 251.832 222.688 251.32C223.306 250.808 223.616 250.109 223.616 249.224V248.92C223.616 248.024 223.306 247.32 222.688 246.808C222.08 246.285 221.242 246.024 220.176 246.024C219.088 246.024 218.24 246.28 217.632 246.792C217.024 247.304 216.72 248.013 216.72 248.92V249.224C216.72 250.109 217.029 250.808 217.648 251.32C218.266 251.832 219.109 252.088 220.176 252.088ZM238.809 245.112V253H237.657V246.36L237.353 246.904L233.481 253H232.425L228.521 246.888L228.233 246.376V253H227.081V245.112H228.745L232.953 251.784L237.145 245.112H238.809ZM245.754 253.176C244.805 253.176 243.973 253.016 243.258 252.696C242.554 252.376 242.01 251.917 241.626 251.32C241.253 250.723 241.066 250.024 241.066 249.224V248.92C241.066 248.109 241.253 247.405 241.626 246.808C242.01 246.2 242.554 245.736 243.258 245.416C243.962 245.096 244.794 244.936 245.754 244.936C246.693 244.936 247.509 245.101 248.202 245.432C248.906 245.752 249.445 246.211 249.818 246.808C250.202 247.405 250.394 248.109 250.394 248.92V249.224C250.394 250.024 250.202 250.723 249.818 251.32C249.445 251.917 248.906 252.376 248.202 252.696C247.509 253.016 246.693 253.176 245.754 253.176ZM245.738 252.088C246.805 252.088 247.642 251.832 248.25 251.32C248.869 250.808 249.178 250.109 249.178 249.224V248.92C249.178 248.024 248.869 247.32 248.25 246.808C247.642 246.285 246.805 246.024 245.738 246.024C244.65 246.024 243.802 246.28 243.194 246.792C242.586 247.304 242.282 248.013 242.282 248.92V249.224C242.282 250.109 242.591 250.808 243.21 251.32C243.829 251.832 244.671 252.088 245.738 252.088ZM267.987 251.96V255.048H266.803V253H252.643V245.112H253.827V251.96H258.931V245.112H260.115V251.96H265.203V245.112H266.387V251.96H267.987ZM271.03 245.112V248.52H277.27V245.112H278.454V253H277.27V249.576H271.03V253H269.846V245.112H271.03ZM282.483 245.112V251.544L288.771 245.112H289.859V253H288.707V246.568L282.419 253H281.331V245.112H282.483ZM301.649 252.824V253H300.305L296.465 249.544H293.921V253H292.737V245.112H293.921V248.52H296.417L300.081 245.112H301.441V245.288L297.521 249L301.649 252.824ZM307.16 253.176C306.211 253.176 305.379 253.016 304.664 252.696C303.96 252.376 303.416 251.917 303.032 251.32C302.659 250.723 302.472 250.024 302.472 249.224V248.92C302.472 248.109 302.659 247.405 303.032 246.808C303.416 246.2 303.96 245.736 304.664 245.416C305.368 245.096 306.2 244.936 307.16 244.936C308.099 244.936 308.915 245.101 309.608 245.432C310.312 245.752 310.851 246.211 311.224 246.808C311.608 247.405 311.8 248.109 311.8 248.92V249.224C311.8 250.024 311.608 250.723 311.224 251.32C310.851 251.917 310.312 252.376 309.608 252.696C308.915 253.016 308.099 253.176 307.16 253.176ZM307.144 252.088C308.211 252.088 309.048 251.832 309.656 251.32C310.275 250.808 310.584 250.109 310.584 249.224V248.92C310.584 248.024 310.275 247.32 309.656 246.808C309.048 246.285 308.211 246.024 307.144 246.024C306.056 246.024 305.208 246.28 304.6 246.792C303.992 247.304 303.688 248.013 303.688 248.92V249.224C303.688 250.109 303.998 250.808 304.616 251.32C305.235 251.832 306.078 252.088 307.144 252.088ZM325.777 245.112V253H324.625V246.36L324.321 246.904L320.449 253H319.393L315.489 246.888L315.201 246.376V253H314.049V245.112H315.713L319.921 251.784L324.113 245.112H325.777ZM331.027 251.144V251.336L329.635 255.288H328.499L329.683 251.144H331.027ZM29.488 272.176C28.5493 272.176 27.728 272.016 27.024 271.696C26.32 271.376 25.776 270.917 25.392 270.32C25.008 269.723 24.816 269.029 24.816 268.24V267.92C24.816 267.12 25.0027 266.421 25.376 265.824C25.76 265.216 26.304 264.752 27.008 264.432C27.712 264.101 28.5387 263.936 29.488 263.936C30.3413 263.936 31.104 264.08 31.776 264.368C32.4587 264.645 32.992 265.04 33.376 265.552C33.76 266.053 33.952 266.619 33.952 267.248V267.328H32.736V267.248C32.736 266.821 32.592 266.443 32.304 266.112C32.0267 265.771 31.6427 265.504 31.152 265.312C30.6613 265.12 30.1067 265.024 29.488 265.024C28.4107 265.024 27.5627 265.285 26.944 265.808C26.336 266.32 26.032 267.029 26.032 267.936V268.224C26.032 269.109 26.336 269.808 26.944 270.32C27.5627 270.832 28.4107 271.088 29.488 271.088C30.1067 271.088 30.6613 270.992 31.152 270.8C31.6533 270.608 32.0427 270.347 32.32 270.016C32.5973 269.685 32.736 269.307 32.736 268.88V268.8H33.952V268.88C33.952 269.52 33.76 270.091 33.376 270.592C33.0027 271.093 32.4747 271.483 31.792 271.76C31.12 272.037 30.352 272.176 29.488 272.176ZM34.6139 265.184V264.112H43.9259V265.184H39.9099V272H38.7099V265.184H34.6139ZM46.717 264.112V270.544L53.005 264.112H54.093V272H52.941V265.568L46.653 272H45.565V264.112H46.717ZM65.4833 272H64.2993V265.168H58.9393L58.8593 268.368C58.8273 269.627 58.5979 270.549 58.1713 271.136C57.7553 271.712 57.1099 272 56.2353 272H55.5793V270.944H55.9793C56.5766 270.944 57.0086 270.741 57.2753 270.336C57.5526 269.931 57.7019 269.253 57.7233 268.304L57.8193 264.112H65.4833V272ZM69.5139 264.112V270.544L75.8019 264.112H76.8899V272H75.7379V265.568L69.4499 272H68.3619V264.112H69.5139ZM86.8401 268C87.2988 268.16 87.6561 268.389 87.9121 268.688C88.1681 268.987 88.2961 269.328 88.2961 269.712V269.824C88.2961 270.603 87.9228 271.189 87.1761 271.584C86.4295 271.979 85.3255 272.176 83.8641 272.176C82.3388 272.176 81.1868 271.909 80.4081 271.376C79.6295 270.843 79.2401 270.043 79.2401 268.976V268.864H80.4241V268.976C80.4241 269.701 80.7068 270.245 81.2721 270.608C81.8481 270.96 82.7175 271.136 83.8801 271.136C84.9788 271.136 85.7841 271.029 86.2961 270.816C86.8188 270.592 87.0801 270.245 87.0801 269.776V269.648C87.0801 269.285 86.9148 269.013 86.5841 268.832C86.2641 268.64 85.7948 268.544 85.1761 268.544H82.4081V267.504H85.0001C85.6188 267.504 86.0828 267.413 86.3921 267.232C86.7121 267.04 86.8721 266.757 86.8721 266.384V266.256C86.8721 265.403 85.8321 264.976 83.7521 264.976C82.6215 264.976 81.7841 265.157 81.2401 265.52C80.6961 265.872 80.4241 266.416 80.4241 267.152V267.264H79.2401V267.152C79.2401 266.107 79.6295 265.312 80.4081 264.768C81.1868 264.213 82.3228 263.936 83.8161 263.936C85.2028 263.936 86.2588 264.133 86.9841 264.528C87.7201 264.912 88.0881 265.477 88.0881 266.224V266.352C88.0881 266.704 87.9761 267.024 87.7521 267.312C87.5388 267.589 87.2348 267.819 86.8401 268ZM91.8576 264.112V270.544L98.1456 264.112H99.2336V272H98.0816V265.568L91.7936 272H90.7056V264.112H91.8576ZM106.56 263.936C107.499 263.936 108.32 264.101 109.024 264.432C109.728 264.752 110.267 265.211 110.64 265.808C111.024 266.405 111.216 267.104 111.216 267.904V268.192C111.216 268.992 111.024 269.696 110.64 270.304C110.256 270.901 109.712 271.365 109.008 271.696C108.315 272.016 107.499 272.176 106.56 272.176C105.92 272.176 105.317 272.069 104.752 271.856C104.197 271.643 103.712 271.339 103.296 270.944V274.72H102.112V264.112H103.216L103.264 265.216C103.669 264.811 104.155 264.496 104.72 264.272C105.296 264.048 105.909 263.936 106.56 263.936ZM110 267.904C110 267.008 109.691 266.304 109.072 265.792C108.464 265.28 107.621 265.024 106.544 265.024C105.861 265.024 105.227 265.152 104.64 265.408C104.064 265.664 103.616 266.011 103.296 266.448V269.648C103.616 270.085 104.064 270.437 104.64 270.704C105.227 270.96 105.861 271.088 106.544 271.088C107.621 271.088 108.464 270.832 109.072 270.32C109.691 269.808 110 269.099 110 268.192V267.904ZM117.535 272.176C116.586 272.176 115.754 272.016 115.039 271.696C114.335 271.376 113.791 270.917 113.407 270.32C113.034 269.723 112.847 269.024 112.847 268.224V267.92C112.847 267.109 113.034 266.405 113.407 265.808C113.791 265.2 114.335 264.736 115.039 264.416C115.743 264.096 116.575 263.936 117.535 263.936C118.474 263.936 119.29 264.101 119.983 264.432C120.687 264.752 121.226 265.211 121.599 265.808C121.983 266.405 122.175 267.109 122.175 267.92V268.224C122.175 269.024 121.983 269.723 121.599 270.32C121.226 270.917 120.687 271.376 119.983 271.696C119.29 272.016 118.474 272.176 117.535 272.176ZM117.519 271.088C118.586 271.088 119.423 270.832 120.031 270.32C120.65 269.808 120.959 269.109 120.959 268.224V267.92C120.959 267.024 120.65 266.32 120.031 265.808C119.423 265.285 118.586 265.024 117.519 265.024C116.431 265.024 115.583 265.28 114.975 265.792C114.367 266.304 114.063 267.013 114.063 267.92V268.224C114.063 269.109 114.373 269.808 114.991 270.32C115.61 270.832 116.453 271.088 117.519 271.088ZM131.912 268C132.883 268.299 133.368 268.869 133.368 269.712V269.872C133.368 270.555 133.112 271.083 132.6 271.456C132.088 271.819 131.358 272 130.408 272H124.424V264.112H130.2C131.15 264.112 131.88 264.293 132.392 264.656C132.915 265.019 133.176 265.525 133.176 266.176V266.336C133.176 266.72 133.064 267.056 132.84 267.344C132.627 267.621 132.318 267.84 131.912 268ZM125.608 265.04V267.552H130.152C130.728 267.552 131.171 267.451 131.48 267.248C131.8 267.035 131.96 266.736 131.96 266.352V266.192C131.96 265.819 131.806 265.536 131.496 265.344C131.187 265.141 130.739 265.04 130.152 265.04H125.608ZM132.152 269.696C132.152 269.312 131.998 269.019 131.688 268.816C131.379 268.603 130.942 268.496 130.376 268.496H125.608V271.072H130.376C130.952 271.072 131.39 270.971 131.688 270.768C131.998 270.555 132.152 270.251 132.152 269.856V269.696ZM145.752 270.96V272H144.776C144.253 272 143.821 271.888 143.48 271.664C143.138 271.44 142.914 271.125 142.808 270.72C141.912 271.691 140.632 272.176 138.968 272.176C137.837 272.176 136.973 271.989 136.376 271.616C135.778 271.232 135.48 270.683 135.48 269.968C135.48 268.688 136.44 267.947 138.36 267.744L142.744 267.28V267.264C142.744 266.539 142.488 265.989 141.976 265.616C141.464 265.243 140.712 265.056 139.72 265.056C138.813 265.056 138.082 265.227 137.528 265.568C136.973 265.909 136.696 266.357 136.696 266.912V267.008H135.528V266.912C135.528 266.336 135.704 265.824 136.056 265.376C136.408 264.917 136.898 264.565 137.528 264.32C138.168 264.064 138.904 263.936 139.736 263.936C141.058 263.936 142.088 264.229 142.824 264.816C143.56 265.403 143.928 266.224 143.928 267.28V269.952C143.928 270.272 144.024 270.523 144.216 270.704C144.408 270.875 144.685 270.96 145.048 270.96H145.752ZM138.952 271.136C139.837 271.136 140.61 270.992 141.272 270.704C141.933 270.405 142.424 269.989 142.744 269.456V268.256L138.6 268.688C137.938 268.763 137.448 268.907 137.128 269.12C136.818 269.323 136.664 269.605 136.664 269.968C136.664 270.747 137.426 271.136 138.952 271.136ZM148.421 264.112V267.52H154.661V264.112H155.845V272H154.661V268.576H148.421V272H147.237V264.112H148.421ZM159.905 264.112V267.52H166.145V264.112H167.329V272H166.145V268.576H159.905V272H158.721V264.112H159.905ZM176.046 266.688C177.027 266.688 177.779 266.923 178.302 267.392C178.835 267.851 179.102 268.475 179.102 269.264V269.472C179.102 270.24 178.835 270.853 178.302 271.312C177.779 271.771 177.027 272 176.046 272H170.398V264.112H171.582V266.688H176.046ZM181.566 264.112V272H180.382V264.112H181.566ZM177.886 269.264C177.886 268.784 177.726 268.411 177.406 268.144C177.096 267.877 176.616 267.744 175.966 267.744H171.582V270.96H175.966C176.616 270.96 177.096 270.827 177.406 270.56C177.726 270.293 177.886 269.931 177.886 269.472V269.264ZM196.371 264.112V272H195.219V265.36L194.915 265.904L191.043 272H189.987L186.083 265.888L185.795 265.376V272H184.643V264.112H186.307L190.515 270.784L194.707 264.112H196.371ZM214.107 264.112V272H212.923V265.168H206.843V272H205.659V264.112H214.107ZM221.051 272.176C220.102 272.176 219.27 272.016 218.555 271.696C217.851 271.376 217.307 270.917 216.923 270.32C216.55 269.723 216.363 269.024 216.363 268.224V267.92C216.363 267.109 216.55 266.405 216.923 265.808C217.307 265.2 217.851 264.736 218.555 264.416C219.259 264.096 220.091 263.936 221.051 263.936C221.99 263.936 222.806 264.101 223.499 264.432C224.203 264.752 224.742 265.211 225.115 265.808C225.499 266.405 225.691 267.109 225.691 267.92V268.224C225.691 269.024 225.499 269.723 225.115 270.32C224.742 270.917 224.203 271.376 223.499 271.696C222.806 272.016 221.99 272.176 221.051 272.176ZM221.035 271.088C222.102 271.088 222.939 270.832 223.547 270.32C224.166 269.808 224.475 269.109 224.475 268.224V267.92C224.475 267.024 224.166 266.32 223.547 265.808C222.939 265.285 222.102 265.024 221.035 265.024C219.947 265.024 219.099 265.28 218.491 265.792C217.883 266.304 217.579 267.013 217.579 267.92V268.224C217.579 269.109 217.888 269.808 218.507 270.32C219.126 270.832 219.968 271.088 221.035 271.088ZM237.919 270.96V274.048H236.735V272H227.615V274.048H226.447L226.431 270.96H227.631C228.207 270.128 228.501 269.115 228.511 267.92L228.575 264.112H236.303V270.96H237.919ZM235.135 270.96V265.168H229.663L229.599 267.936C229.589 268.587 229.514 269.157 229.375 269.648C229.247 270.139 229.061 270.576 228.815 270.96H235.135ZM254.513 264.112V272H253.329V265.168H247.249V272H246.065V264.112H254.513ZM265.873 268.448H258.001C258.033 269.269 258.348 269.915 258.945 270.384C259.553 270.853 260.369 271.088 261.393 271.088C262.332 271.088 263.094 270.917 263.681 270.576C264.268 270.235 264.577 269.781 264.609 269.216H265.873C265.809 270.133 265.377 270.859 264.577 271.392C263.777 271.915 262.716 272.176 261.393 272.176C260.454 272.176 259.638 272.016 258.945 271.696C258.252 271.376 257.713 270.923 257.329 270.336C256.956 269.739 256.769 269.04 256.769 268.24V267.888C256.769 267.088 256.956 266.389 257.329 265.792C257.713 265.195 258.252 264.736 258.945 264.416C259.638 264.096 260.454 263.936 261.393 263.936C262.3 263.936 263.089 264.096 263.761 264.416C264.444 264.725 264.966 265.173 265.329 265.76C265.692 266.347 265.873 267.04 265.873 267.84V268.448ZM261.377 265.024C260.396 265.024 259.606 265.243 259.009 265.68C258.422 266.107 258.092 266.699 258.017 267.456H264.625C264.561 266.699 264.241 266.107 263.665 265.68C263.089 265.243 262.326 265.024 261.377 265.024ZM272.576 263.936C273.514 263.936 274.336 264.101 275.04 264.432C275.744 264.752 276.282 265.211 276.656 265.808C277.04 266.405 277.232 267.104 277.232 267.904V268.192C277.232 268.992 277.04 269.696 276.656 270.304C276.272 270.901 275.728 271.365 275.024 271.696C274.33 272.016 273.514 272.176 272.576 272.176C271.936 272.176 271.333 272.069 270.768 271.856C270.213 271.643 269.728 271.339 269.312 270.944V274.72H268.128V264.112H269.232L269.28 265.216C269.685 264.811 270.17 264.496 270.736 264.272C271.312 264.048 271.925 263.936 272.576 263.936ZM276.016 267.904C276.016 267.008 275.706 266.304 275.088 265.792C274.48 265.28 273.637 265.024 272.56 265.024C271.877 265.024 271.242 265.152 270.656 265.408C270.08 265.664 269.632 266.011 269.312 266.448V269.648C269.632 270.085 270.08 270.437 270.656 270.704C271.242 270.96 271.877 271.088 272.56 271.088C273.637 271.088 274.48 270.832 275.088 270.32C275.706 269.808 276.016 269.099 276.016 268.192V267.904ZM283.535 272.176C282.596 272.176 281.775 272.016 281.071 271.696C280.367 271.376 279.823 270.917 279.439 270.32C279.055 269.723 278.863 269.029 278.863 268.24V267.92C278.863 267.12 279.05 266.421 279.423 265.824C279.807 265.216 280.351 264.752 281.055 264.432C281.759 264.101 282.586 263.936 283.535 263.936C284.388 263.936 285.151 264.08 285.823 264.368C286.506 264.645 287.039 265.04 287.423 265.552C287.807 266.053 287.999 266.619 287.999 267.248V267.328H286.783V267.248C286.783 266.821 286.639 266.443 286.351 266.112C286.074 265.771 285.69 265.504 285.199 265.312C284.708 265.12 284.154 265.024 283.535 265.024C282.458 265.024 281.61 265.285 280.991 265.808C280.383 266.32 280.079 267.029 280.079 267.936V268.224C280.079 269.109 280.383 269.808 280.991 270.32C281.61 270.832 282.458 271.088 283.535 271.088C284.154 271.088 284.708 270.992 285.199 270.8C285.7 270.608 286.09 270.347 286.367 270.016C286.644 269.685 286.783 269.307 286.783 268.88V268.8H287.999V268.88C287.999 269.52 287.807 270.091 287.423 270.592C287.05 271.093 286.522 271.483 285.839 271.76C285.167 272.037 284.399 272.176 283.535 272.176ZM294.27 272.176C293.32 272.176 292.488 272.016 291.774 271.696C291.07 271.376 290.526 270.917 290.142 270.32C289.768 269.723 289.582 269.024 289.582 268.224V267.92C289.582 267.109 289.768 266.405 290.142 265.808C290.526 265.2 291.07 264.736 291.774 264.416C292.478 264.096 293.31 263.936 294.27 263.936C295.208 263.936 296.024 264.101 296.718 264.432C297.422 264.752 297.96 265.211 298.334 265.808C298.718 266.405 298.91 267.109 298.91 267.92V268.224C298.91 269.024 298.718 269.723 298.334 270.32C297.96 270.917 297.422 271.376 296.718 271.696C296.024 272.016 295.208 272.176 294.27 272.176ZM294.254 271.088C295.32 271.088 296.158 270.832 296.766 270.32C297.384 269.808 297.694 269.109 297.694 268.224V267.92C297.694 267.024 297.384 266.32 296.766 265.808C296.158 265.285 295.32 265.024 294.254 265.024C293.166 265.024 292.318 265.28 291.71 265.792C291.102 266.304 290.798 267.013 290.798 267.92V268.224C290.798 269.109 291.107 269.808 291.726 270.32C292.344 270.832 293.187 271.088 294.254 271.088ZM302.343 264.112V267.52H308.583V264.112H309.767V272H308.583V268.576H302.343V272H301.159V264.112H302.343ZM322.392 270.96V272H321.416C320.894 272 320.462 271.888 320.12 271.664C319.779 271.44 319.555 271.125 319.448 270.72C318.552 271.691 317.272 272.176 315.608 272.176C314.478 272.176 313.614 271.989 313.016 271.616C312.419 271.232 312.12 270.683 312.12 269.968C312.12 268.688 313.08 267.947 315 267.744L319.384 267.28V267.264C319.384 266.539 319.128 265.989 318.616 265.616C318.104 265.243 317.352 265.056 316.36 265.056C315.454 265.056 314.723 265.227 314.168 265.568C313.614 265.909 313.336 266.357 313.336 266.912V267.008H312.168V266.912C312.168 266.336 312.344 265.824 312.696 265.376C313.048 264.917 313.539 264.565 314.168 264.32C314.808 264.064 315.544 263.936 316.376 263.936C317.699 263.936 318.728 264.229 319.464 264.816C320.2 265.403 320.568 266.224 320.568 267.28V269.952C320.568 270.272 320.664 270.523 320.856 270.704C321.048 270.875 321.326 270.96 321.688 270.96H322.392ZM315.592 271.136C316.478 271.136 317.251 270.992 317.912 270.704C318.574 270.405 319.064 269.989 319.384 269.456V268.256L315.24 268.688C314.579 268.763 314.088 268.907 313.768 269.12C313.459 269.323 313.304 269.605 313.304 269.968C313.304 270.747 314.067 271.136 315.592 271.136ZM338.086 271.824V272H336.774L333.35 268.56H331.174V272H329.99V268.56H327.814L324.39 272H323.078V271.824L326.822 268L323.286 264.288V264.112H324.614L327.878 267.52H329.99V264.112H331.174V267.52H333.286L336.55 264.112H337.878V264.288L334.342 268.016L338.086 271.824ZM349.658 270.96V272H348.682C348.159 272 347.727 271.888 347.386 271.664C347.045 271.44 346.821 271.125 346.714 270.72C345.818 271.691 344.538 272.176 342.874 272.176C341.743 272.176 340.879 271.989 340.282 271.616C339.685 271.232 339.386 270.683 339.386 269.968C339.386 268.688 340.346 267.947 342.266 267.744L346.65 267.28V267.264C346.65 266.539 346.394 265.989 345.882 265.616C345.37 265.243 344.618 265.056 343.626 265.056C342.719 265.056 341.989 265.227 341.434 265.568C340.879 265.909 340.602 266.357 340.602 266.912V267.008H339.434V266.912C339.434 266.336 339.61 265.824 339.962 265.376C340.314 264.917 340.805 264.565 341.434 264.32C342.074 264.064 342.81 263.936 343.642 263.936C344.965 263.936 345.994 264.229 346.73 264.816C347.466 265.403 347.834 266.224 347.834 267.28V269.952C347.834 270.272 347.93 270.523 348.122 270.704C348.314 270.875 348.591 270.96 348.954 270.96H349.658ZM342.858 271.136C343.743 271.136 344.517 270.992 345.178 270.704C345.839 270.405 346.33 269.989 346.65 269.456V268.256L342.506 268.688C341.845 268.763 341.354 268.907 341.034 269.12C340.725 269.323 340.57 269.605 340.57 269.968C340.57 270.747 341.333 271.136 342.858 271.136Z" fill="white"/>
<path d="M574.367 264C575.463 264 576.523 264.386 577.363 265.09L577.667 265.367L580 267.701L582.333 265.367C583.108 264.593 584.131 264.115 585.222 264.019L585.633 264H595.022C596.512 264 597.962 264.475 599.163 265.356C600.364 266.238 601.253 267.479 601.7 268.9L601.814 269.301L602.902 273.651C603.024 274.142 603.039 274.653 602.945 275.15C602.851 275.648 602.65 276.118 602.356 276.531C602.063 276.943 601.683 277.286 601.244 277.537C600.805 277.789 600.316 277.942 599.812 277.986L599.507 278H560.493C559.987 278 559.488 277.89 559.028 277.678C558.569 277.466 558.161 277.157 557.832 276.772C557.504 276.388 557.263 275.936 557.126 275.449C556.988 274.962 556.958 274.451 557.038 273.952L557.098 273.651L558.186 269.301C558.547 267.856 559.36 266.564 560.507 265.612C561.653 264.661 563.073 264.1 564.56 264.012L564.978 264H574.367ZM580 233.667C581.829 233.667 583.876 234.11 585.553 234.579C589.277 235.617 591.485 239.003 591.655 242.547L591.667 242.991V252.34C591.667 256.046 589.434 259.674 585.553 260.754C583.876 261.221 581.829 261.667 580 261.667C578.171 261.667 576.124 261.223 574.447 260.754C570.723 259.716 568.515 256.33 568.345 252.786L568.333 252.343V242.991C568.333 239.288 570.566 235.657 574.447 234.577C576.124 234.112 578.171 233.667 580 233.667Z" fill="white"/>
<path d="M582.921 252.211V252.52H580.905L580.099 250.692H575.69L574.884 252.52H572.868V252.211L576.779 243.703H579.01L582.921 252.211ZM579.333 248.945L577.894 245.666L576.456 248.945H579.333Z" fill="#333333"/>
<path d="M586.087 243.703V252.52H584.057V243.703H586.087Z" fill="#333333"/>
<path d="M536.5 213.5H598.4C602.889 213.5 606.225 213.5 608.868 213.716C611.505 213.932 613.408 214.359 615.037 215.189C617.953 216.675 620.325 219.047 621.811 221.963C622.641 223.592 623.068 225.495 623.284 228.132C623.5 230.775 623.5 234.111 623.5 238.6V275.4C623.5 279.889 623.5 283.225 623.284 285.868C623.068 288.505 622.641 290.408 621.811 292.037C620.325 294.953 617.953 297.325 615.037 298.811C613.408 299.641 611.505 300.068 608.868 300.284C606.225 300.5 602.889 300.5 598.4 300.5H536.5V213.5Z" stroke="white"/>
<path d="M0.5 229C0.5 220.44 7.43959 213.5 16 213.5H608C616.56 213.5 623.5 220.44 623.5 229V285C623.5 293.56 616.56 300.5 608 300.5H16C7.43959 300.5 0.5 293.56 0.5 285V229Z" stroke="white"/>
</svg>
